<?xml version="1.0" encoding="UTF-8" standalone="no" ?>
<!DOCTYPE svg PUBLIC "-//W3C//DTD SVG 1.1//EN" "http://www.w3.org/Graphics/SVG/1.1/DTD/svg11.dtd">
<svg xmlns="http://www.w3.org/2000/svg" xmlns:xlink="http://www.w3.org/1999/xlink" version="1.1" width="1080" height="1080" viewBox="0 0 1080 1080" xml:space="preserve">
<desc>Created with Fabric.js 5.2.4</desc>
<defs>
</defs>
<g transform="matrix(1 0 0 1 540 540)" id="1575e008-74f0-4771-aa06-9e63d3bdca49"  >
<rect style="stroke: none; stroke-width: 1; stroke-dasharray: none; stroke-linecap: butt; stroke-dashoffset: 0; stroke-linejoin: miter; stroke-miterlimit: 4; fill: rgb(255,255,255); fill-rule: nonzero; opacity: 1; visibility: hidden;" vector-effect="non-scaling-stroke"  x="-540" y="-540" rx="0" ry="0" width="1080" height="1080" />
</g>
<g transform="matrix(1 0 0 1 540 540)" id="7800ceaf-886e-4e38-883b-bfb63a09e29a"  >
</g>
<g transform="matrix(1.57 0 0 1.57 540 540)"  >
<g style=""   >
		<g transform="matrix(1 0 0 1 21.34 15.77)" id="OBJECTS"  >
<path style="stroke: none; stroke-width: 1; stroke-dasharray: none; stroke-linecap: butt; stroke-dashoffset: 0; stroke-linejoin: miter; stroke-miterlimit: 4; fill: rgb(246,134,106); fill-rule: evenodd; opacity: 1;" vector-effect="non-scaling-stroke"  transform=" translate(-791.92, -310.92)" d="M 787.213 128.725 C 903.41 133.159 993.432 190.661 1026.699 282.909 C 1057.892 369.403 1043.845 452.804 952.1210000000001 472.254 C 864.7600000000001 490.778 815.541 448.021 733.7340000000002 481.418 C 552.1970000000001 551.714 474.04400000000015 293.72 613.5170000000002 183.034 C 669.609 138.52 716.813 126.453 787.213 128.725 z" stroke-linecap="round" />
</g>
		<g transform="matrix(1 0 0 1 17.65 26.57)" id="OBJECTS"  >
<path style="stroke: none; stroke-width: 1; stroke-dasharray: none; stroke-linecap: butt; stroke-dashoffset: 0; stroke-linejoin: miter; stroke-miterlimit: 4; fill: rgb(255,255,255); fill-rule: evenodd; opacity: 1;" vector-effect="non-scaling-stroke"  transform=" translate(-788.23, -321.72)" d="M 564.03 327.149 C 570.199 272.821 590.345 231.716 619.055 201.846 C 651.971 167.603 696.121 148.16500000000002 743.3499999999999 140.518 C 786.036 133.607 826.137 135.679 861.5569999999999 145.952 C 897.2599999999999 156.30599999999998 928.2019999999999 174.989 952.2349999999999 201.201 C 971.3369999999999 222.03199999999998 988.632 251.523 1000.0079999999999 283.31 C 1010.4419999999999 312.456 1015.906 343.557 1013.242 371.72 C 1011.1519999999999 393.798 1003.625 413.07000000000005 991.857 428.49600000000004 C 979.867 444.21900000000005 963.476 455.946 943.959 462.57800000000003 C 917.506 471.567 889.125 469.44100000000003 860.674 467.309 C 823.867 464.552 786.938 461.785 754.471 483.37100000000004 C 725.754 502.461 697.35 509.237 671.539 506.30600000000004 C 655.187 504.45000000000005 639.891 498.70000000000005 626.225 489.71600000000007 C 612.573 480.7420000000001 600.549 468.5400000000001 590.73 453.7710000000001 C 569.282 421.513 558.37 376.998 564.03 327.149 L 564.03 327.149 z M 621.148 204.143 C 592.868 233.565 573.02 274.08799999999997 566.934 327.683 C 561.367 376.71299999999997 572.057 420.43 593.082 452.057 C 602.651 466.452 614.367 478.34200000000004 627.665 487.082 C 640.9499999999999 495.815 655.8149999999999 501.404 671.698 503.20799999999997 C 696.888 506.06699999999995 724.673 499.414 752.831 480.69399999999996 C 786.058 458.60299999999995 823.452 461.405 860.72 464.19699999999995 C 888.904 466.30899999999997 917.015 468.41499999999996 942.937 459.60599999999994 C 961.9350000000001 453.1499999999999 977.886 441.74099999999993 989.55 426.4479999999999 C 1000.986 411.45199999999994 1008.3059999999999 392.7179999999999 1010.3349999999999 371.25299999999993 C 1012.9519999999999 343.5999999999999 1007.5619999999999 312.99699999999996 997.2839999999999 284.2799999999999 C 986.0589999999999 252.92299999999992 969.0109999999999 223.8439999999999 950.1899999999998 203.31699999999992 C 926.5489999999999 177.53699999999992 896.0919999999999 159.1529999999999 860.9279999999999 148.95499999999993 C 825.9099999999999 138.79999999999993 786.2209999999999 136.75799999999992 743.9419999999999 143.60299999999992 C 697.25 151.164 653.627 170.352 621.148 204.143 z" stroke-linecap="round" />
</g>
		<g transform="matrix(1 0 0 1 274.03 35.42)" id="OBJECTS"  >
<path style="stroke: none; stroke-width: 1; stroke-dasharray: none; stroke-linecap: butt; stroke-dashoffset: 0; stroke-linejoin: miter; stroke-miterlimit: 4; fill: rgb(255,255,255); fill-rule: evenodd; opacity: 1;" vector-effect="non-scaling-stroke"  transform=" translate(-1044.61, -330.57)" d="M 1019.674 211.508 C 1050.108 242.649 1070.565 302.589 1069.51 347.968 C 1068.662 384.37800000000004 1058.375 421.11800000000005 1038.944 449.63300000000004 C 1047.145 426.999 1037.587 453.07200000000006 1045.926 431.261 C 1065.328 380.52500000000003 1067.3519999999999 326.82500000000005 1049.49 273.75600000000003 C 1040.504 247.056 1031.646 234.911 1019.674 211.508 z" stroke-linecap="round" />
</g>
		<g transform="matrix(1 0 0 1 -223.37 85.55)" id="OBJECTS"  >
<path style="stroke: none; stroke-width: 1; stroke-dasharray: none; stroke-linecap: butt; stroke-dashoffset: 0; stroke-linejoin: miter; stroke-miterlimit: 4; fill: rgb(255,255,255); fill-rule: evenodd; opacity: 1;" vector-effect="non-scaling-stroke"  transform=" translate(-547.21, -380.7)" d="M 530.283 276.445 C 513.114 311.646 512.068 368.566 525.162 406.95799999999997 C 535.668 437.75899999999996 554.188 466.162 578.169 484.952 C 565.198 467.984 580.235 487.498 567.367 471.272 C 537.4309999999999 433.527 521.284 388.317 522.001 337.99199999999996 C 522.361 312.674 526.529 299.803 530.283 276.445 z" stroke-linecap="round" />
</g>
		<g transform="matrix(1 0 0 1 218.84 127.19)" id="OBJECTS"  >
<path style="stroke: none; stroke-width: 1; stroke-dasharray: none; stroke-linecap: butt; stroke-dashoffset: 0; stroke-linejoin: miter; stroke-miterlimit: 4; fill: rgb(47,38,83); fill-rule: evenodd; opacity: 1;" vector-effect="non-scaling-stroke"  transform=" translate(-989.42, -422.34)" d="M 931.469 473.611 C 943.032 463.563 952.844 474.356 969.014 477.037 C 1042.393 485.048 973.205 401.138 995.407 366.491 C 1009.5590000000001 344.407 1054.214 334.61899999999997 1048.739 362.082 C 1044.503 383.33299999999997 1003.7330000000001 356.394 1018.868 417.926 C 1027.237 451.95099999999996 1039.5140000000001 482.154 996.327 496.37199999999996 C 976.567 502.87699999999995 954.891 497.86699999999996 936.364 489.67099999999994 C 929.56 486.394 927.896 480.142 931.469 473.611 z" stroke-linecap="round" />
</g>
		<g transform="matrix(1 0 0 1 143.55 145.82)" id="OBJECTS"  >
<path style="stroke: none; stroke-width: 1; stroke-dasharray: none; stroke-linecap: butt; stroke-dashoffset: 0; stroke-linejoin: miter; stroke-miterlimit: 4; fill: rgb(168,67,22); fill-rule: evenodd; opacity: 1;" vector-effect="non-scaling-stroke"  transform=" translate(-914.13, -440.97)" d="M 870.353 388.647 C 860.6089999999999 426.145 866.914 428.92199999999997 866.914 428.92199999999997 C 866.914 428.92199999999997 827.191 439.05199999999996 830.066 474.592 C 833.519 517.271 871.21 516.043 910.048 517.367 C 955.431 518.913 1002.376 509.746 998.077 466.818 C 995.052 436.578 958.647 428.92199999999997 958.647 428.92199999999997 C 958.647 428.92199999999997 964.952 426.145 955.2090000000001 388.647 C 946.816 356.345 878.748 356.345 870.353 388.647 z" stroke-linecap="round" />
</g>
		<g transform="matrix(1 0 0 1 175.32 144.95)" id="OBJECTS"  >
<path style="stroke: none; stroke-width: 1; stroke-dasharray: none; stroke-linecap: butt; stroke-dashoffset: 0; stroke-linejoin: miter; stroke-miterlimit: 4; fill: rgb(204,88,33); fill-rule: evenodd; opacity: 1;" vector-effect="non-scaling-stroke"  transform=" translate(-945.91, -440.1)" d="M 924.004 475.792 L 923.1 368.829 C 923.1 368.829 936.1270000000001 350.342 952.26 365.657 C 979.8149999999999 391.81899999999996 967.871 474.532 951.899 513.15 C 949.139 519.824 928.419 526.198 926.335 512.512 C 924.977 503.59 924.137 491.522 924.004 475.792 z" stroke-linecap="round" />
</g>
		<g transform="matrix(1 0 0 1 116.23 144.96)" id="OBJECTS"  >
<path style="stroke: none; stroke-width: 1; stroke-dasharray: none; stroke-linecap: butt; stroke-dashoffset: 0; stroke-linejoin: miter; stroke-miterlimit: 4; fill: rgb(204,88,33); fill-rule: evenodd; opacity: 1;" vector-effect="non-scaling-stroke"  transform=" translate(-886.82, -440.11)" d="M 908.723 475.792 L 909.627 368.82899999999995 C 909.627 368.82899999999995 896.5999999999999 350.3419999999999 880.467 365.6569999999999 C 852.108 392.5829999999999 865.584 479.40199999999993 882.235 516.4129999999999 C 885.9730000000001 524.7229999999998 905.475 519.9529999999999 906.837 509.3309999999999 C 907.932 500.784 908.605 489.725 908.723 475.792 z" stroke-linecap="round" />
</g>
		<g transform="matrix(1 0 0 1 119.26 222.04)" id="OBJECTS"  >
<path style="stroke: none; stroke-width: 1; stroke-dasharray: none; stroke-linecap: butt; stroke-dashoffset: 0; stroke-linejoin: miter; stroke-miterlimit: 4; fill: rgb(204,88,33); fill-rule: evenodd; opacity: 1;" vector-effect="non-scaling-stroke"  transform=" translate(-889.84, -517.19)" d="M 881.355 510.303 C 872.892 515.27 867.451 526.943 878.937 527.704 C 890.423 528.4649999999999 904.732 527.895 907.148 513.779 C 909.566 499.664 881.355 510.303 881.355 510.303 z" stroke-linecap="round" />
</g>
		<g transform="matrix(1 0 0 1 172.3 222.04)" id="OBJECTS"  >
<path style="stroke: none; stroke-width: 1; stroke-dasharray: none; stroke-linecap: butt; stroke-dashoffset: 0; stroke-linejoin: miter; stroke-miterlimit: 4; fill: rgb(204,88,33); fill-rule: evenodd; opacity: 1;" vector-effect="non-scaling-stroke"  transform=" translate(-942.89, -517.19)" d="M 951.373 510.303 C 959.836 515.27 965.277 526.943 953.791 527.704 C 942.3050000000001 528.4649999999999 927.998 527.895 925.58 513.779 C 923.162 499.664 951.373 510.303 951.373 510.303 z" stroke-linecap="round" />
</g>
		<g transform="matrix(1 0 0 1 183.91 225.74)" id="OBJECTS"  >
<path style="stroke: none; stroke-width: 1; stroke-dasharray: none; stroke-linecap: butt; stroke-dashoffset: 0; stroke-linejoin: miter; stroke-miterlimit: 4; fill: rgb(172,68,30); fill-rule: evenodd; opacity: 1;" vector-effect="non-scaling-stroke"  transform=" translate(-954.49, -520.89)" d="M 959.268 524.74 C 959.522 525.464 959.12 526.25 958.364 526.495 C 957.6120000000001 526.739 956.792 526.352 956.5360000000001 525.629 C 955.9190000000001 523.881 955.0440000000001 522.306 953.985 520.974 C 952.928 519.642 951.688 518.556 950.3480000000001 517.7900000000001 C 949.662 517.4010000000001 949.4340000000001 516.5530000000001 949.84 515.8940000000001 C 950.244 515.2370000000001 951.129 515.0190000000001 951.815 515.4070000000002 C 953.475 516.3540000000002 954.995 517.6800000000002 956.2760000000001 519.2950000000002 C 957.521 520.863 958.547 522.707 959.268 524.74 z" stroke-linecap="round" />
</g>
		<g transform="matrix(1 0 0 1 176.37 228.27)" id="OBJECTS"  >
<path style="stroke: none; stroke-width: 1; stroke-dasharray: none; stroke-linecap: butt; stroke-dashoffset: 0; stroke-linejoin: miter; stroke-miterlimit: 4; fill: rgb(172,68,30); fill-rule: evenodd; opacity: 1;" vector-effect="non-scaling-stroke"  transform=" translate(-946.95, -523.42)" d="M 951.887 526.587 C 952.213 527.283 951.891 528.105 951.164 528.418 C 950.439 528.732 949.584 528.421 949.258 527.725 C 948.51 526.129 947.537 524.719 946.416 523.561 C 945.3050000000001 522.4150000000001 944.053 521.52 942.7280000000001 520.938 C 942.0050000000001 520.621 941.6850000000001 519.8 942.0150000000001 519.107 C 942.3450000000001 518.413 943.1990000000001 518.108 943.9230000000001 518.424 C 945.6010000000001 519.161 947.1630000000001 520.2719999999999 948.5230000000001 521.675 C 949.861 523.054 951.008 524.718 951.887 526.587 z" stroke-linecap="round" />
</g>
		<g transform="matrix(1 0 0 1 107.4 225.74)" id="OBJECTS"  >
<path style="stroke: none; stroke-width: 1; stroke-dasharray: none; stroke-linecap: butt; stroke-dashoffset: 0; stroke-linejoin: miter; stroke-miterlimit: 4; fill: rgb(172,68,30); fill-rule: evenodd; opacity: 1;" vector-effect="non-scaling-stroke"  transform=" translate(-877.99, -520.89)" d="M 875.939 525.629 C 875.685 526.352 874.865 526.739 874.111 526.495 C 873.357 526.25 872.955 525.464 873.209 524.74 C 873.928 522.707 874.9549999999999 520.863 876.2009999999999 519.295 C 877.4819999999999 517.6809999999999 879.002 516.3549999999999 880.6619999999999 515.4069999999999 C 881.348 515.0189999999999 882.232 515.237 882.637 515.8939999999999 C 883.0409999999999 516.5519999999999 882.8149999999999 517.4009999999998 882.1289999999999 517.7899999999998 C 880.7869999999999 518.5559999999998 879.5489999999999 519.6419999999998 878.4899999999999 520.9739999999998 C 877.434 522.306 876.557 523.881 875.939 525.629 z" stroke-linecap="round" />
</g>
		<g transform="matrix(1 0 0 1 114.94 228.27)" id="OBJECTS"  >
<path style="stroke: none; stroke-width: 1; stroke-dasharray: none; stroke-linecap: butt; stroke-dashoffset: 0; stroke-linejoin: miter; stroke-miterlimit: 4; fill: rgb(172,68,30); fill-rule: evenodd; opacity: 1;" vector-effect="non-scaling-stroke"  transform=" translate(-885.53, -523.42)" d="M 883.219 527.725 C 882.893 528.421 882.037 528.7330000000001 881.3130000000001 528.418 C 880.5860000000001 528.104 880.2640000000001 527.283 880.5900000000001 526.587 C 881.4670000000001 524.718 882.6150000000001 523.054 883.9510000000001 521.675 C 885.3120000000001 520.2719999999999 886.8730000000002 519.161 888.5530000000001 518.424 C 889.2760000000001 518.108 890.1290000000001 518.412 890.4590000000001 519.107 C 890.7890000000001 519.8 890.4730000000001 520.621 889.748 520.938 C 888.4240000000001 521.52 887.172 522.415 886.0630000000001 523.561 C 884.938 524.719 883.967 526.129 883.219 527.725 z" stroke-linecap="round" />
</g>
		<g transform="matrix(1 0 0 1 185.75 148.54)" id="OBJECTS"  >
<path style="stroke: none; stroke-width: 1; stroke-dasharray: none; stroke-linecap: butt; stroke-dashoffset: 0; stroke-linejoin: miter; stroke-miterlimit: 4; fill: rgb(168,67,22); fill-rule: evenodd; opacity: 1;" vector-effect="non-scaling-stroke"  transform=" translate(-956.34, -443.69)" d="M 956.422 448.429 C 957.346 448.55499999999995 958.309 448.66999999999996 959.307 448.77099999999996 C 961.7520000000001 449.01599999999996 964.405 449.179 967.192 449.24299999999994 C 967.606 445.5419999999999 967.942 441.8329999999999 968.194 438.13999999999993 C 966.231 438.16799999999995 964.329 438.24499999999995 962.512 438.3669999999999 C 952.0759999999999 439.0579999999999 944.477 441.1849999999999 944.477 443.7019999999999 C 944.477 443.79899999999986 944.4889999999999 443.8959999999999 944.51 443.9919999999999 C 944.947 445.864 949.598 447.492 956.422 448.429 z" stroke-linecap="round" />
</g>
		<g transform="matrix(1 0 0 1 183.72 163.74)" id="OBJECTS"  >
<path style="stroke: none; stroke-width: 1; stroke-dasharray: none; stroke-linecap: butt; stroke-dashoffset: 0; stroke-linejoin: miter; stroke-miterlimit: 4; fill: rgb(168,67,22); fill-rule: evenodd; opacity: 1;" vector-effect="non-scaling-stroke"  transform=" translate(-954.3, -458.89)" d="M 941.885 456.033 C 941.885 459.259 951.996 463.298 964.91 465.363 C 965.592 461.373 966.199 457.325 966.713 453.254 C 952.951 451.436 941.885 452.658 941.885 456.033 z" stroke-linecap="round" />
</g>
		<g transform="matrix(1 0 0 1 106.05 148.54)" id="OBJECTS"  >
<path style="stroke: none; stroke-width: 1; stroke-dasharray: none; stroke-linecap: butt; stroke-dashoffset: 0; stroke-linejoin: miter; stroke-miterlimit: 4; fill: rgb(168,67,22); fill-rule: evenodd; opacity: 1;" vector-effect="non-scaling-stroke"  transform=" translate(-876.64, -443.69)" d="M 873.912 448.771 C 882.287 447.92900000000003 888.215 446.118 888.711 443.99100000000004 C 888.734 443.89500000000004 888.744 443.79800000000006 888.744 443.701 C 888.744 440.71000000000004 878.008 438.269 864.533 438.134 C 864.785 441.833 865.123 445.547 865.537 449.254 C 868.504 449.197 871.324 449.03 873.912 448.771 z" stroke-linecap="round" />
</g>
		<g transform="matrix(1 0 0 1 108.46 165.68)" id="OBJECTS"  >
<path style="stroke: none; stroke-width: 1; stroke-dasharray: none; stroke-linecap: butt; stroke-dashoffset: 0; stroke-linejoin: miter; stroke-miterlimit: 4; fill: rgb(168,67,22); fill-rule: evenodd; opacity: 1;" vector-effect="non-scaling-stroke"  transform=" translate(-879.05, -460.83)" d="M 891.82 457.93 C 891.82 454.511 880.4530000000001 453.3 866.431 455.22700000000003 L 866.273 455.24800000000005 C 866.82 459.32500000000005 867.453 463.374 868.164 467.35800000000006 C 881.379 465.326 891.82 461.209 891.82 457.93 z" stroke-linecap="round" />
</g>
		<g transform="matrix(1 0 0 1 145.78 109.16)" id="OBJECTS"  >
<path style="stroke: none; stroke-width: 1; stroke-dasharray: none; stroke-linecap: butt; stroke-dashoffset: 0; stroke-linejoin: miter; stroke-miterlimit: 4; fill: rgb(201,202,202); fill-rule: evenodd; opacity: 1;" vector-effect="non-scaling-stroke"  transform=" translate(-916.36, -404.31)" d="M 873.643 376.113 C 862.36 393.039 880.899 414.803 880.899 414.803 L 886.1370000000001 406.742 C 903.4300000000001 442.711 929.297 442.711 946.59 406.742 L 951.8280000000001 414.803 C 951.8280000000001 414.803 970.3670000000001 393.038 959.0820000000001 376.113 L 916.363 374.904 L 873.643 376.113 z" stroke-linecap="round" />
</g>
		<g transform="matrix(1 0 0 1 109.29 -2.48)" id="OBJECTS"  >
<path style="stroke: none; stroke-width: 1; stroke-dasharray: none; stroke-linecap: butt; stroke-dashoffset: 0; stroke-linejoin: miter; stroke-miterlimit: 4; fill: rgb(204,88,33); fill-rule: evenodd; opacity: 1;" vector-effect="non-scaling-stroke"  transform=" translate(-879.88, -292.67)" d="M 899.084 299.79 C 884.853 274.886 860.66 255.675 860.66 255.675 L 860.66 329.674 C 860.66 329.674 899.795 309.04 899.084 299.79 z" stroke-linecap="round" />
</g>
		<g transform="matrix(1 0 0 1 181.88 -2.48)" id="OBJECTS"  >
<path style="stroke: none; stroke-width: 1; stroke-dasharray: none; stroke-linecap: butt; stroke-dashoffset: 0; stroke-linejoin: miter; stroke-miterlimit: 4; fill: rgb(204,88,33); fill-rule: evenodd; opacity: 1;" vector-effect="non-scaling-stroke"  transform=" translate(-952.46, -292.67)" d="M 933.258 299.79 C 947.489 274.886 971.6800000000001 255.675 971.6800000000001 255.675 L 971.6800000000001 329.674 C 971.68 329.674 932.545 309.04 933.258 299.79 z" stroke-linecap="round" />
</g>
		<g transform="matrix(1 0 0 1 187.21 6.2)" id="OBJECTS"  >
<path style="stroke: none; stroke-width: 1; stroke-dasharray: none; stroke-linecap: butt; stroke-dashoffset: 0; stroke-linejoin: miter; stroke-miterlimit: 4; fill: rgb(47,38,83); fill-rule: evenodd; opacity: 1;" vector-effect="non-scaling-stroke"  transform=" translate(-957.8, -301.35)" d="M 971.68 273.022 L 971.68 329.673 C 971.68 329.673 961.262 324.179 951.274 317.591 C 946.792 313.824 943.721 310.23900000000003 943.926 307.588 C 952.049 293.373 963.418 281.015 971.68 273.022 z" stroke-linecap="round" />
</g>
		<g transform="matrix(1 0 0 1 103.96 6.2)" id="OBJECTS"  >
<path style="stroke: none; stroke-width: 1; stroke-dasharray: none; stroke-linecap: butt; stroke-dashoffset: 0; stroke-linejoin: miter; stroke-miterlimit: 4; fill: rgb(47,38,83); fill-rule: evenodd; opacity: 1;" vector-effect="non-scaling-stroke"  transform=" translate(-874.54, -301.35)" d="M 860.66 273.022 L 860.66 329.673 C 860.66 329.673 871.0799999999999 324.179 881.068 317.591 C 885.548 313.82300000000004 888.619 310.23900000000003 888.4159999999999 307.588 C 880.291 293.373 868.924 281.014 860.66 273.022 z" stroke-linecap="round" />
</g>
		<g transform="matrix(1 0 0 1 145.59 45.55)" id="OBJECTS"  >
<path style="stroke: none; stroke-width: 1; stroke-dasharray: none; stroke-linecap: butt; stroke-dashoffset: 0; stroke-linejoin: miter; stroke-miterlimit: 4; fill: rgb(204,88,33); fill-rule: evenodd; opacity: 1;" vector-effect="non-scaling-stroke"  transform=" translate(-916.17, -340.71)" d="M 916.17 285.559 C 944.721 285.559 969.139 309.663 979.055 334.624 C 983.2429999999999 339.117 986.024 340.706 989.858 340.706 C 994.1179999999999 340.706 989.4889999999999 362.398 981.702 369.824 C 974.259 390.029 947.7429999999999 395.85200000000003 916.171 395.85200000000003 C 884.599 395.85200000000003 858.0830000000001 390.02900000000005 850.6400000000001 369.824 C 842.8530000000001 362.398 838.224 340.706 842.4860000000001 340.706 C 846.3180000000001 340.706 849.0990000000002 339.117 853.2890000000001 334.624 C 863.201 309.662 887.617 285.559 916.17 285.559 z" stroke-linecap="round" />
</g>
		<g transform="matrix(1 0 0 1 122.24 12.01)" id="OBJECTS"  >
<path style="stroke: none; stroke-width: 1; stroke-dasharray: none; stroke-linecap: butt; stroke-dashoffset: 0; stroke-linejoin: miter; stroke-miterlimit: 4; fill: rgb(225,165,136); fill-rule: evenodd; opacity: 1;" vector-effect="non-scaling-stroke"  transform=" translate(-892.83, -307.16)" d="M 899.996 305.826 C 902.137 314.413 886.336 312.791 885.5 309.437 C 884.664 306.084 897.857 297.239 899.996 305.826 z" stroke-linecap="round" />
</g>
		<g transform="matrix(1 0 0 1 168.23 11.57)" id="OBJECTS"  >
<path style="stroke: none; stroke-width: 1; stroke-dasharray: none; stroke-linecap: butt; stroke-dashoffset: 0; stroke-linejoin: miter; stroke-miterlimit: 4; fill: rgb(225,165,136); fill-rule: evenodd; opacity: 1;" vector-effect="non-scaling-stroke"  transform=" translate(-938.82, -306.73)" d="M 931.535 305.685 C 929.846 314.373 945.5409999999999 311.932 946.201 308.54 C 946.861 305.147 933.227 296.999 931.535 305.685 z" stroke-linecap="round" />
</g>
		<g transform="matrix(1 0 0 1 145.59 70.71)" id="OBJECTS"  >
<path style="stroke: none; stroke-width: 1; stroke-dasharray: none; stroke-linecap: butt; stroke-dashoffset: 0; stroke-linejoin: miter; stroke-miterlimit: 4; fill: rgb(255,255,255); fill-rule: evenodd; opacity: 1;" vector-effect="non-scaling-stroke"  transform=" translate(-916.17, -365.86)" d="M 981.981 369.024 C 967.073 324.826 865.27 324.826 850.358 369.024 C 857.3929999999999 389.875 884.188 395.852 916.1709999999999 395.852 C 948.154 395.853 974.947 389.875 981.981 369.024 z" stroke-linecap="round" />
</g>
		<g transform="matrix(1 0 0 1 145.59 92.06)" id="OBJECTS"  >
<path style="stroke: none; stroke-width: 1; stroke-dasharray: none; stroke-linecap: butt; stroke-dashoffset: 0; stroke-linejoin: miter; stroke-miterlimit: 4; fill: rgb(255,255,255); fill-rule: evenodd; opacity: 1;" vector-effect="non-scaling-stroke"  transform=" translate(-916.17, -387.21)" d="M 890.863 394.254 C 898.6790000000001 395.384 907.22 395.853 916.1700000000001 395.853 C 925.119 395.853 933.6600000000001 395.384 941.4770000000001 394.254 L 941.4770000000001 378.57 L 890.864 378.57 L 890.864 394.254 z" stroke-linecap="round" />
</g>
		<g transform="matrix(1 0 0 1 145.86 45.24)" id="OBJECTS"  >
<path style="stroke: none; stroke-width: 1; stroke-dasharray: none; stroke-linecap: butt; stroke-dashoffset: 0; stroke-linejoin: miter; stroke-miterlimit: 4; fill: rgb(47,38,83); fill-rule: evenodd; opacity: 1;" vector-effect="non-scaling-stroke"  transform=" translate(-916.45, -340.39)" d="M 928.924 337.525 C 928.924 353.73699999999997 903.971 353.73699999999997 903.971 337.525 C 903.971 328.95 928.924 328.95 928.924 337.525 z" stroke-linecap="round" />
</g>
		<g transform="matrix(1 0 0 1 145.86 39.63)" id="OBJECTS"  >
<path style="stroke: none; stroke-width: 1; stroke-dasharray: none; stroke-linecap: butt; stroke-dashoffset: 0; stroke-linejoin: miter; stroke-miterlimit: 4; fill: rgb(255,255,255); fill-rule: evenodd; opacity: 1;" vector-effect="non-scaling-stroke"  transform=" translate(-916.45, -334.79)" d="M 916.449 332.786 C 919.478 332.786 921.935 333.681 921.935 334.786 C 921.935 335.889 919.478 336.785 916.449 336.785 C 913.418 336.785 910.9609999999999 335.889 910.9609999999999 334.786 C 910.961 333.681 913.418 332.786 916.449 332.786 z" stroke-linecap="round" />
</g>
		<g transform="matrix(1 0 0 1 134.77 57.29)" id="OBJECTS"  >
<path style="stroke: none; stroke-width: 1; stroke-dasharray: none; stroke-linecap: butt; stroke-dashoffset: 0; stroke-linejoin: miter; stroke-miterlimit: 4; fill: rgb(29,17,61); fill-rule: evenodd; opacity: 1;" vector-effect="non-scaling-stroke"  transform=" translate(-905.35, -352.45)" d="M 914.275 341.607 C 914.275 340.58000000000004 915.101 339.74600000000004 916.119 339.74600000000004 C 917.1370000000001 339.74600000000004 917.9630000000001 340.58000000000004 917.9630000000001 341.607 C 917.9630000000001 342.38000000000005 917.965 342.48400000000004 917.965 342.673 C 918.014 346.505 918.1550000000001 357.947 917.166 359.657 C 916.187 361.354 914.119 362.931 911.572 363.943 C 909.683 364.693 907.484 365.15799999999996 905.246 365.144 C 902.951 365.13 900.615 364.619 898.521 363.409 C 896.1769999999999 362.056 894.1519999999999 359.856 892.8349999999999 356.545 C 892.458 355.593 892.915 354.512 893.8559999999999 354.13100000000003 C 894.7989999999999 353.749 895.8699999999999 354.21200000000005 896.2469999999998 355.163 C 897.2219999999999 357.613 898.6789999999999 359.217 900.3489999999998 360.181 C 901.8649999999998 361.056 903.5699999999998 361.426 905.2589999999998 361.43699999999995 C 907.0029999999998 361.44699999999995 908.7339999999998 361.07899999999995 910.2319999999997 360.48299999999995 C 912.0289999999998 359.76899999999995 913.4159999999997 358.78 913.9839999999997 357.79699999999997 C 914.4679999999997 356.95599999999996 914.3379999999997 346.28799999999995 914.2939999999996 342.717 C 914.283 341.846 914.275 342.023 914.275 341.607 z" stroke-linecap="round" />
</g>
		<g transform="matrix(1 0 0 1 156.4 57.29)" id="OBJECTS"  >
<path style="stroke: none; stroke-width: 1; stroke-dasharray: none; stroke-linecap: butt; stroke-dashoffset: 0; stroke-linejoin: miter; stroke-miterlimit: 4; fill: rgb(29,17,61); fill-rule: evenodd; opacity: 1;" vector-effect="non-scaling-stroke"  transform=" translate(-926.99, -352.44)" d="M 914.379 341.607 C 914.379 340.58000000000004 915.203 339.74600000000004 916.2230000000001 339.74600000000004 C 917.2410000000001 339.74600000000004 918.065 340.58000000000004 918.065 341.607 C 918.065 342.021 918.057 341.846 918.047 342.71500000000003 C 918.004 346.28700000000003 917.871 356.954 918.357 357.795 C 918.925 358.778 920.312 359.76800000000003 922.107 360.481 C 923.607 361.076 925.338 361.445 927.0799999999999 361.435 C 928.7689999999999 361.424 930.4759999999999 361.05400000000003 931.992 360.17900000000003 C 933.66 359.21500000000003 935.1189999999999 357.612 936.092 355.16100000000006 C 936.471 354.21000000000004 937.5409999999999 353.74700000000007 938.483 354.1290000000001 C 939.424 354.51000000000005 939.8829999999999 355.59100000000007 939.5039999999999 356.54300000000006 C 938.1899999999999 359.8550000000001 936.1639999999999 362.05500000000006 933.8199999999999 363.40700000000004 C 931.7239999999999 364.617 929.39 365.129 927.0949999999999 365.14200000000005 C 924.8549999999999 365.15500000000003 922.6569999999999 364.69100000000003 920.7669999999999 363.94100000000003 C 918.222 362.92900000000003 916.1539999999999 361.35200000000003 915.175 359.65500000000003 C 914.1869999999999 357.94500000000005 914.327 346.50300000000004 914.3739999999999 342.67100000000005 C 914.377 342.484 914.379 342.38 914.379 341.607 z" stroke-linecap="round" />
</g>
		<g transform="matrix(1 0 0 1 120.64 30.93)" id="OBJECTS"  >
<path style="stroke: none; stroke-width: 1; stroke-dasharray: none; stroke-linecap: butt; stroke-dashoffset: 0; stroke-linejoin: miter; stroke-miterlimit: 4; fill: rgb(47,38,83); fill-rule: evenodd; opacity: 1;" vector-effect="non-scaling-stroke"  transform=" translate(-891.23, -326.09)" d="M 891.228 319.814 C 894.6909999999999 319.814 897.5 322.622 897.5 326.08500000000004 C 897.5 329.54900000000004 894.691 332.35600000000005 891.228 332.35600000000005 C 887.765 332.35600000000005 884.957 329.54800000000006 884.957 326.08500000000004 C 884.957 322.621 887.766 319.814 891.228 319.814 z" stroke-linecap="round" />
</g>
		<g transform="matrix(1 0 0 1 170.53 30.93)" id="OBJECTS"  >
<path style="stroke: none; stroke-width: 1; stroke-dasharray: none; stroke-linecap: butt; stroke-dashoffset: 0; stroke-linejoin: miter; stroke-miterlimit: 4; fill: rgb(47,38,83); fill-rule: evenodd; opacity: 1;" vector-effect="non-scaling-stroke"  transform=" translate(-941.11, -326.09)" d="M 941.111 319.814 C 944.574 319.814 947.382 322.622 947.382 326.08500000000004 C 947.382 329.54900000000004 944.573 332.35600000000005 941.111 332.35600000000005 C 937.649 332.35600000000005 934.84 329.54800000000006 934.84 326.08500000000004 C 934.84 322.621 937.648 319.814 941.111 319.814 z" stroke-linecap="round" />
</g>
		<g transform="matrix(1 0 0 1 107.29 2.69)" id="OBJECTS"  >
<path style="stroke: none; stroke-width: 1; stroke-dasharray: none; stroke-linecap: butt; stroke-dashoffset: 0; stroke-linejoin: miter; stroke-miterlimit: 4; fill: rgb(204,88,33); fill-rule: evenodd; opacity: 1;" vector-effect="non-scaling-stroke"  transform=" translate(-877.87, -297.84)" d="M 883.834 298.034 C 866.236 284.835 871.7689999999999 292.652 877.414 304.534 L 883.834 298.034 z" stroke-linecap="round" />
</g>
		<g transform="matrix(1 0 0 1 183.89 2.69)" id="OBJECTS"  >
<path style="stroke: none; stroke-width: 1; stroke-dasharray: none; stroke-linecap: butt; stroke-dashoffset: 0; stroke-linejoin: miter; stroke-miterlimit: 4; fill: rgb(204,88,33); fill-rule: evenodd; opacity: 1;" vector-effect="non-scaling-stroke"  transform=" translate(-954.47, -297.84)" d="M 948.508 298.034 C 966.106 284.835 960.5730000000001 292.652 954.926 304.534 L 948.508 298.034 z" stroke-linecap="round" />
</g>
		<g transform="matrix(1 0 0 1 91.74 45.43)" id="OBJECTS"  >
<path style="stroke: none; stroke-width: 1; stroke-dasharray: none; stroke-linecap: butt; stroke-dashoffset: 0; stroke-linejoin: miter; stroke-miterlimit: 4; fill: rgb(29,17,61); fill-rule: evenodd; opacity: 1;" vector-effect="non-scaling-stroke"  transform=" translate(-862.32, -340.58)" d="M 836.894 339.379 C 836.373 339.432 835.904 339.05100000000004 835.851 338.52700000000004 C 835.798 338.004 836.177 337.53600000000006 836.701 337.482 C 858.506 335.24100000000004 887.9780000000001 342.22200000000004 888.0640000000001 342.242 C 888.5780000000001 342.36100000000005 888.8960000000001 342.875 888.777 343.389 C 888.658 343.902 888.144 344.221 887.6310000000001 344.10200000000003 C 887.547 344.082 858.371 337.171 836.894 339.379 z" stroke-linecap="round" />
</g>
		<g transform="matrix(1 0 0 1 92.55 58.4)" id="OBJECTS"  >
<path style="stroke: none; stroke-width: 1; stroke-dasharray: none; stroke-linecap: butt; stroke-dashoffset: 0; stroke-linejoin: miter; stroke-miterlimit: 4; fill: rgb(29,17,61); fill-rule: evenodd; opacity: 1;" vector-effect="non-scaling-stroke"  transform=" translate(-863.13, -353.55)" d="M 837.859 357.568 C 837.359 357.72999999999996 836.82 357.45599999999996 836.658 356.95599999999996 C 836.496 356.455 836.769 355.917 837.269 355.75399999999996 C 858.252 348.914 888.627 349.506 888.714 349.508 C 889.239 349.515 889.657 349.947 889.652 350.474 C 889.644 350.99899999999997 889.211 351.418 888.6850000000001 351.40999999999997 C 888.598 351.409 858.547 350.823 837.859 357.568 z" stroke-linecap="round" />
</g>
		<g transform="matrix(1 0 0 1 94.34 69.31)" id="OBJECTS"  >
<path style="stroke: none; stroke-width: 1; stroke-dasharray: none; stroke-linecap: butt; stroke-dashoffset: 0; stroke-linejoin: miter; stroke-miterlimit: 4; fill: rgb(29,17,61); fill-rule: evenodd; opacity: 1;" vector-effect="non-scaling-stroke"  transform=" translate(-864.93, -364.46)" d="M 843.459 372.104 C 842.9939999999999 372.354 842.4179999999999 372.18 842.1679999999999 371.716 C 841.9179999999999 371.252 842.0919999999999 370.67400000000004 842.5569999999999 370.425 C 859.9199999999998 361.074 886.6159999999999 356.73400000000004 886.694 356.721 C 887.212 356.637 887.702 356.989 887.786 357.508 C 887.872 358.02799999999996 887.5179999999999 358.518 886.9989999999999 358.602 C 886.922 358.615 860.547 362.904 843.459 372.104 z" stroke-linecap="round" />
</g>
		<g transform="matrix(1 0 0 1 199.13 45.43)" id="OBJECTS"  >
<path style="stroke: none; stroke-width: 1; stroke-dasharray: none; stroke-linecap: butt; stroke-dashoffset: 0; stroke-linejoin: miter; stroke-miterlimit: 4; fill: rgb(29,17,61); fill-rule: evenodd; opacity: 1;" vector-effect="non-scaling-stroke"  transform=" translate(-969.71, -340.58)" d="M 995.334 337.482 C 995.857 337.536 996.2379999999999 338.004 996.1859999999999 338.52700000000004 C 996.1329999999999 339.05000000000007 995.665 339.43100000000004 995.141 339.379 C 973.6659999999999 337.171 944.4889999999999 344.082 944.405 344.10200000000003 C 943.893 344.22100000000006 943.38 343.90200000000004 943.26 343.389 C 943.139 342.875 943.459 342.362 943.973 342.242 C 944.057 342.223 973.533 335.241 995.334 337.482 z" stroke-linecap="round" />
</g>
		<g transform="matrix(1 0 0 1 198.32 58.4)" id="OBJECTS"  >
<path style="stroke: none; stroke-width: 1; stroke-dasharray: none; stroke-linecap: butt; stroke-dashoffset: 0; stroke-linejoin: miter; stroke-miterlimit: 4; fill: rgb(29,17,61); fill-rule: evenodd; opacity: 1;" vector-effect="non-scaling-stroke"  transform=" translate(-968.9, -353.55)" d="M 994.766 355.754 C 995.266 355.91700000000003 995.539 356.45500000000004 995.379 356.956 C 995.215 357.456 994.676 357.73 994.176 357.56800000000004 C 973.49 350.82300000000004 943.4380000000001 351.40900000000005 943.35 351.40900000000005 C 942.827 351.41800000000006 942.393 350.999 942.385 350.47300000000007 C 942.377 349.94700000000006 942.797 349.51400000000007 943.3199999999999 349.50700000000006 C 943.408 349.506 973.783 348.914 994.766 355.754 z" stroke-linecap="round" />
</g>
		<g transform="matrix(1 0 0 1 196.53 69.31)" id="OBJECTS"  >
<path style="stroke: none; stroke-width: 1; stroke-dasharray: none; stroke-linecap: butt; stroke-dashoffset: 0; stroke-linejoin: miter; stroke-miterlimit: 4; fill: rgb(29,17,61); fill-rule: evenodd; opacity: 1;" vector-effect="non-scaling-stroke"  transform=" translate(-967.11, -364.46)" d="M 989.481 370.426 C 989.946 370.675 990.12 371.253 989.87 371.717 C 989.62 372.181 989.042 372.35499999999996 988.579 372.10499999999996 C 971.491 362.905 945.1139999999999 358.616 945.038 358.60299999999995 C 944.519 358.51899999999995 944.167 358.02899999999994 944.251 357.50899999999996 C 944.3349999999999 356.98999999999995 944.8249999999999 356.638 945.345 356.722 C 945.422 356.734 972.115 361.075 989.481 370.426 z" stroke-linecap="round" />
</g>
		<g transform="matrix(1 0 0 1 173.91 28.18)" id="OBJECTS"  >
<path style="stroke: none; stroke-width: 1; stroke-dasharray: none; stroke-linecap: butt; stroke-dashoffset: 0; stroke-linejoin: miter; stroke-miterlimit: 4; fill: rgb(255,255,255); fill-rule: evenodd; opacity: 1;" vector-effect="non-scaling-stroke"  transform=" translate(-944.5, -323.33)" d="M 944.494 325.48 C 945.678 325.48 946.642 324.51500000000004 946.642 323.333 C 946.642 322.15000000000003 945.677 321.18600000000004 944.494 321.18600000000004 C 943.312 321.18600000000004 942.3480000000001 322.15000000000003 942.3480000000001 323.333 C 942.348 324.516 943.313 325.48 944.494 325.48 z" stroke-linecap="round" />
</g>
		<g transform="matrix(1 0 0 1 123.87 28.18)" id="OBJECTS"  >
<path style="stroke: none; stroke-width: 1; stroke-dasharray: none; stroke-linecap: butt; stroke-dashoffset: 0; stroke-linejoin: miter; stroke-miterlimit: 4; fill: rgb(255,255,255); fill-rule: evenodd; opacity: 1;" vector-effect="non-scaling-stroke"  transform=" translate(-894.46, -323.33)" d="M 894.455 325.48 C 895.6370000000001 325.48 896.6030000000001 324.51500000000004 896.6030000000001 323.333 C 896.6030000000001 322.15000000000003 895.6360000000001 321.18600000000004 894.455 321.18600000000004 C 893.273 321.18600000000004 892.3090000000001 322.15000000000003 892.3090000000001 323.333 C 892.309 324.516 893.273 325.48 894.455 325.48 z" stroke-linecap="round" />
</g>
		<g transform="matrix(1 0 0 1 145.75 71.24)" id="OBJECTS"  >
<path style="stroke: none; stroke-width: 1; stroke-dasharray: none; stroke-linecap: butt; stroke-dashoffset: 0; stroke-linejoin: miter; stroke-miterlimit: 4; fill: rgb(47,38,83); fill-rule: evenodd; opacity: 1;" vector-effect="non-scaling-stroke"  transform=" translate(-916.33, -366.39)" d="M 916.26 359.563 C 919.672 359.563 927.6659999999999 363.086 927.285 363.775 C 923.5989999999999 370.436 915.252 381.00899999999996 905.4119999999999 364.128 C 904.631 362.786 913.967 359.563 916.26 359.563 z" stroke-linecap="round" />
</g>
		<g transform="matrix(1 0 0 1 145.59 14.84)" id="OBJECTS"  >
<path style="stroke: none; stroke-width: 1; stroke-dasharray: none; stroke-linecap: butt; stroke-dashoffset: 0; stroke-linejoin: miter; stroke-miterlimit: 4; fill: rgb(168,67,22); fill-rule: evenodd; opacity: 1;" vector-effect="non-scaling-stroke"  transform=" translate(-916.17, -310)" d="M 897.324 290.498 C 904.986 296.796 909.7539999999999 305.592 909.342 317.14 C 909.098 323.929 907.235 329.935 905.295 334.43399999999997 C 909.36 330.248 921.68 329.998 926.731 333.68399999999997 C 924.909 329.277 923.229 323.558 923.001 317.14 C 922.5889999999999 305.592 927.356 296.796 935.0169999999999 290.498 C 935.4129999999999 290.174 935.8159999999999 289.856 936.2259999999999 289.543 C 929.8899999999999 287.00100000000003 923.1559999999998 285.559 916.1709999999999 285.559 C 909.189 285.559 902.454 287.00100000000003 896.116 289.543 C 896.525 289.855 896.93 290.174 897.324 290.498 z" stroke-linecap="round" />
</g>
		<g transform="matrix(1 0 0 1 145.43 85.94)" id="OBJECTS"  >
<path style="stroke: none; stroke-width: 1; stroke-dasharray: none; stroke-linecap: butt; stroke-dashoffset: 0; stroke-linejoin: miter; stroke-miterlimit: 4; fill: rgb(201,202,202); fill-rule: evenodd; opacity: 1;" vector-effect="non-scaling-stroke"  transform=" translate(-916.02, -381.09)" d="M 926.322 379.587 C 926.322 388.077 905.713 388.077 905.713 379.587 C 905.713 375.097 926.322 375.097 926.322 379.587 z" stroke-linecap="round" />
</g>
		<g transform="matrix(1 0 0 1 -144.33 57.93)" id="OBJECTS"  >
<path style="stroke: none; stroke-width: 1; stroke-dasharray: none; stroke-linecap: butt; stroke-dashoffset: 0; stroke-linejoin: miter; stroke-miterlimit: 4; fill: rgb(47,38,83); fill-rule: evenodd; opacity: 1;" vector-effect="non-scaling-stroke"  transform=" translate(-626.25, -353.08)" d="M 706.594 416.101 C 656.855 475.569 560.744 438.443 546.144 371.32 C 546.144 371.32 549.391 374.129 553.261 376.918 C 545.048 356.665 543.107 335.982 550.5749999999999 320.105 L 564.8849999999999 341.913 C 556.7719999999999 316.44 565.3289999999998 269.945 590.0019999999998 260.267 C 594.685 322.728 601.719 434.507 706.594 416.101 z" stroke-linecap="round" />
</g>
		<g transform="matrix(1 0 0 1 -62.74 80.51)" id="OBJECTS"  >
<path style="stroke: none; stroke-width: 1; stroke-dasharray: none; stroke-linecap: butt; stroke-dashoffset: 0; stroke-linejoin: miter; stroke-miterlimit: 4; fill: rgb(125,79,63); fill-rule: evenodd; opacity: 1;" vector-effect="non-scaling-stroke"  transform=" translate(-707.85, -375.66)" d="M 663.344 218.229 C 669.826 248.08200000000002 662.4190000000001 268.55100000000004 649.4570000000001 306.933 C 636.4950000000001 345.31399999999996 644.8820000000001 418.667 644.8820000000001 418.667 C 644.8820000000001 418.667 601.365 404.167 594.884 438.28299999999996 C 588.403 472.4 627.29 497.98799999999994 627.29 497.98799999999994 C 627.29 497.98799999999994 562.478 507.36999999999995 560.626 529.5459999999999 C 558.775 551.722 614.961 539.5619999999999 641.635 529.4369999999999 C 668.309 519.3109999999999 663.399 510.7829999999999 663.399 510.7829999999999 L 707.84 510.7829999999999 L 752.283 510.7829999999999 C 752.283 510.7829999999999 749.189 519.3109999999999 782.519 531.2529999999999 C 815.851 543.193 856.906 551.723 855.054 529.5469999999999 C 853.202 507.3709999999999 788.3919999999999 497.9889999999999 788.3919999999999 497.9889999999999 C 788.3919999999999 497.9889999999999 827.279 472.4009999999999 820.7979999999999 438.28399999999993 C 814.3159999999999 404.16799999999995 770.7979999999999 418.66799999999995 770.7979999999999 418.66799999999995 C 770.7979999999999 418.66799999999995 779.1869999999999 345.31499999999994 766.2239999999999 306.93399999999997 C 753.261 268.55199999999996 745.8549999999999 248.08299999999997 752.337 218.22999999999996 L 707.8389999999999 207.99699999999996 L 663.344 218.229 z" stroke-linecap="round" />
</g>
		<g transform="matrix(1 0 0 1 -100.92 134.73)" id="OBJECTS"  >
<path style="stroke: none; stroke-width: 1; stroke-dasharray: none; stroke-linecap: butt; stroke-dashoffset: 0; stroke-linejoin: miter; stroke-miterlimit: 4; fill: rgb(175,117,75); fill-rule: evenodd; opacity: 1;" vector-effect="non-scaling-stroke"  transform=" translate(-669.66, -429.88)" d="M 644.368 334.548 C 645.6020000000001 368.207 663.3900000000001 487.701 666.2460000000001 518.539 C 666.796 524.4739999999999 662.6290000000001 525.456 660.6050000000001 525.749 C 653.4620000000001 526.782 643.4040000000001 529.514 640.2320000000001 536.727 C 634.3900000000001 550.005 673.6460000000001 544.6379999999999 680.047 543.946 C 685.9060000000001 543.311 690.879 542.457 691.344 536.388 L 699.678 344.125 C 699.678 344.125 665.942 283.648 644.368 334.548 z" stroke-linecap="round" />
</g>
		<g transform="matrix(1 0 0 1 -24.55 134.73)" id="OBJECTS"  >
<path style="stroke: none; stroke-width: 1; stroke-dasharray: none; stroke-linecap: butt; stroke-dashoffset: 0; stroke-linejoin: miter; stroke-miterlimit: 4; fill: rgb(175,117,75); fill-rule: evenodd; opacity: 1;" vector-effect="non-scaling-stroke"  transform=" translate(-746.04, -429.88)" d="M 771.328 334.548 C 770.0939999999999 368.207 752.307 487.701 749.451 518.539 C 748.902 524.4739999999999 753.066 525.456 755.09 525.749 C 762.235 526.782 772.293 529.514 775.465 536.727 C 781.3050000000001 550.005 742.049 544.6379999999999 735.6510000000001 543.946 C 729.792 543.311 724.8190000000001 542.457 724.354 536.388 L 716.0200000000001 344.125 C 716.019 344.125 749.754 283.648 771.328 334.548 z" stroke-linecap="round" />
</g>
		<g transform="matrix(1 0 0 1 -117.78 245.34)" id="OBJECTS"  >
<path style="stroke: none; stroke-width: 1; stroke-dasharray: none; stroke-linecap: butt; stroke-dashoffset: 0; stroke-linejoin: miter; stroke-miterlimit: 4; fill: rgb(125,79,63); fill-rule: evenodd; opacity: 1;" vector-effect="non-scaling-stroke"  transform=" translate(-652.8, -540.49)" d="M 651.072 545.328 C 651.469 544.477 651.912 543.683 652.39 542.954 C 653.619 541.087 655.087 539.644 656.667 538.779 C 657.3580000000001 538.404 657.6610000000001 537.434 657.346 536.6129999999999 C 657.031 535.7929999999999 656.216 535.4309999999999 655.527 535.8059999999999 C 653.543 536.8919999999999 651.724 538.6659999999999 650.2270000000001 540.9419999999999 C 649.4340000000001 542.1479999999999 648.7300000000001 543.4969999999998 648.1370000000001 544.9579999999999 C 649.07 545.11 650.051 545.233 651.072 545.328 z" stroke-linecap="round" />
</g>
		<g transform="matrix(1 0 0 1 -124.18 242.99)" id="OBJECTS"  >
<path style="stroke: none; stroke-width: 1; stroke-dasharray: none; stroke-linecap: butt; stroke-dashoffset: 0; stroke-linejoin: miter; stroke-miterlimit: 4; fill: rgb(125,79,63); fill-rule: evenodd; opacity: 1;" vector-effect="non-scaling-stroke"  transform=" translate(-646.4, -538.14)" d="M 644.07 543.95 C 644.638 542.344 645.3570000000001 540.8870000000001 646.187 539.6260000000001 C 647.416 537.758 648.8820000000001 536.3160000000001 650.464 535.4510000000001 C 651.1540000000001 535.0760000000001 651.4580000000001 534.1060000000001 651.142 533.2850000000001 C 650.827 532.465 650.013 532.1030000000001 649.3240000000001 532.4780000000001 C 647.339 533.5640000000001 645.5210000000001 535.3370000000001 644.023 537.613 C 643.046 539.0980000000001 642.205 540.7990000000001 641.543 542.6590000000001 C 642.23 543.165 643.084 543.592 644.07 543.95 z" stroke-linecap="round" />
</g>
		<g transform="matrix(1 0 0 1 -6.03 245.42)" id="OBJECTS"  >
<path style="stroke: none; stroke-width: 1; stroke-dasharray: none; stroke-linecap: butt; stroke-dashoffset: 0; stroke-linejoin: miter; stroke-miterlimit: 4; fill: rgb(125,79,63); fill-rule: evenodd; opacity: 1;" vector-effect="non-scaling-stroke"  transform=" translate(-764.56, -540.57)" d="M 766.24 545.178 C 765.9 544.497 765.533 543.856 765.138 543.257 C 763.9110000000001 541.39 762.443 539.948 760.861 539.082 C 760.172 538.707 759.869 537.737 760.183 536.917 C 760.497 536.096 761.312 535.734 762.001 536.109 C 763.987 537.195 765.8059999999999 538.9680000000001 767.302 541.245 C 767.95 542.232 768.5400000000001 543.315 769.058 544.477 C 768.174 544.734 767.23 544.967 766.24 545.178 z" stroke-linecap="round" />
</g>
		<g transform="matrix(1 0 0 1 0.23 242.66)" id="OBJECTS"  >
<path style="stroke: none; stroke-width: 1; stroke-dasharray: none; stroke-linecap: butt; stroke-dashoffset: 0; stroke-linejoin: miter; stroke-miterlimit: 4; fill: rgb(125,79,63); fill-rule: evenodd; opacity: 1;" vector-effect="non-scaling-stroke"  transform=" translate(-770.81, -537.81)" d="M 772.971 542.992 C 772.498 541.8789999999999 771.951 540.851 771.344 539.9269999999999 C 770.115 538.06 768.647 536.6179999999999 767.067 535.752 C 766.378 535.377 766.073 534.4079999999999 766.389 533.587 C 766.703 532.7669999999999 767.518 532.405 768.207 532.78 C 770.191 533.866 772.01 535.639 773.506 537.915 C 774.199 538.968 774.822 540.1279999999999 775.3629999999999 541.376 C 774.748 541.964 773.941 542.504 772.971 542.992 z" stroke-linecap="round" />
</g>
		<g transform="matrix(1 0 0 1 -62.74 20.43)" id="OBJECTS"  >
<path style="stroke: none; stroke-width: 1; stroke-dasharray: none; stroke-linecap: butt; stroke-dashoffset: 0; stroke-linejoin: miter; stroke-miterlimit: 4; fill: rgb(175,117,75); fill-rule: evenodd; opacity: 1;" vector-effect="non-scaling-stroke"  transform=" translate(-707.84, -315.58)" d="M 663.344 218.229 C 669.826 248.08200000000002 662.4190000000001 268.55100000000004 649.4570000000001 306.933 C 640.6840000000001 332.911 641.6910000000001 374.902 643.2580000000002 399.33299999999997 C 661.5500000000002 414.34999999999997 683.8150000000002 423.167 707.8400000000001 423.167 C 731.8670000000002 423.167 754.1330000000002 414.34999999999997 772.4220000000001 399.33299999999997 C 773.9900000000001 374.90099999999995 774.9980000000002 332.90999999999997 766.2250000000001 306.933 C 753.2620000000002 268.551 745.8560000000001 248.082 752.3380000000002 218.22899999999998 L 707.8400000000001 207.99599999999998 L 663.344 218.229 z" stroke-linecap="round" />
</g>
		<g transform="matrix(1 0 0 1 -62.51 85.28)" id="OBJECTS"  >
<path style="stroke: none; stroke-width: 1; stroke-dasharray: none; stroke-linecap: butt; stroke-dashoffset: 0; stroke-linejoin: miter; stroke-miterlimit: 4; fill: rgb(203,143,108); fill-rule: evenodd; opacity: 1;" vector-effect="non-scaling-stroke"  transform=" translate(-708.08, -380.43)" d="M 699.193 423.167 C 702.052 423.919 714.033 424.157 717.037 423.513 C 717.047 423.48199999999997 716.707 397.174 716.2810000000001 373.969 C 715.931 354.775 713.97 337.185 707.98 336.972 C 702.74 336.786 700.402 353.597 699.871 375.768 C 699.523 390.351 698.896 407.256 699.193 423.167 z" stroke-linecap="round" />
</g>
		<g transform="matrix(1 0 0 1 -71.66 115.11)" id="OBJECTS"  >
<path style="stroke: none; stroke-width: 1; stroke-dasharray: none; stroke-linecap: butt; stroke-dashoffset: 0; stroke-linejoin: miter; stroke-miterlimit: 4; fill: rgb(125,79,63); fill-rule: evenodd; opacity: 1;" vector-effect="non-scaling-stroke"  transform=" translate(-698.92, -410.26)" d="M 698.031 450.907 C 697.976 451.724 697.269 452.34499999999997 696.4509999999999 452.28999999999996 C 695.6349999999999 452.23499999999996 695.0149999999999 451.52799999999996 695.0699999999999 450.71 C 695.4979999999999 444.341 695.6969999999999 438.57399999999996 695.881 433.257 C 696.0079999999999 429.595 696.127 426.142 696.299 422.97 C 698.877 375.43100000000004 699.8199999999999 369.511 699.822 369.492 C 699.941 368.68100000000004 700.695 368.119 701.506 368.237 C 702.319 368.35600000000005 702.881 369.11100000000005 702.762 369.922 C 702.76 369.94 701.828 375.77700000000004 699.262 423.12 C 699.084 426.39300000000003 698.967 429.77 698.8439999999999 433.35 C 698.656 438.771 698.453 444.648 698.031 450.907 z" stroke-linecap="round" />
</g>
		<g transform="matrix(1 0 0 1 -53.66 115.41)" id="OBJECTS"  >
<path style="stroke: none; stroke-width: 1; stroke-dasharray: none; stroke-linecap: butt; stroke-dashoffset: 0; stroke-linejoin: miter; stroke-miterlimit: 4; fill: rgb(125,79,63); fill-rule: evenodd; opacity: 1;" vector-effect="non-scaling-stroke"  transform=" translate(-716.93, -410.56)" d="M 720.629 451.367 C 720.652 452.185 720.0120000000001 452.87 719.193 452.89500000000004 C 718.375 452.91900000000004 717.691 452.278 717.6659999999999 451.46000000000004 C 715.732 390.187 714.467 379.97300000000007 713.5799999999999 372.812 C 713.4689999999999 371.90700000000004 713.3609999999999 371.055 713.232 369.86400000000003 C 713.144 369.05 713.736 368.31800000000004 714.55 368.23100000000005 C 715.3639999999999 368.14500000000004 716.0949999999999 368.73600000000005 716.183 369.55000000000007 C 716.271 370.3590000000001 716.396 371.3740000000001 716.531 372.4510000000001 C 717.42 379.628 718.688 389.864 720.629 451.367 z" stroke-linecap="round" />
</g>
		<g transform="matrix(1 0 0 1 -204.75 235.78)" id="OBJECTS"  >
<path style="stroke: none; stroke-width: 1; stroke-dasharray: none; stroke-linecap: butt; stroke-dashoffset: 0; stroke-linejoin: miter; stroke-miterlimit: 4; fill: rgb(47,38,83); fill-rule: evenodd; opacity: 1;" vector-effect="non-scaling-stroke"  transform=" translate(-565.84, -530.93)" d="M 561.424 534.602 C 562.014 532.8389999999999 562.76 531.216 563.6279999999999 529.776 C 564.9069999999999 527.6519999999999 566.4619999999999 525.9129999999999 568.1759999999999 524.693 C 568.8269999999999 524.2289999999999 569.67 524.482 570.059 525.256 C 570.448 526.031 570.236 527.035 569.586 527.4979999999999 C 568.202 528.4809999999999 566.932 529.914 565.865 531.684 C 564.871 533.3349999999999 564.061 535.273 563.51 537.409 C 562.621 536.598 561.918 535.664 561.424 534.602 z" stroke-linecap="round" />
</g>
		<g transform="matrix(1 0 0 1 -194.16 240.96)" id="OBJECTS"  >
<path style="stroke: none; stroke-width: 1; stroke-dasharray: none; stroke-linecap: butt; stroke-dashoffset: 0; stroke-linejoin: miter; stroke-miterlimit: 4; fill: rgb(47,38,83); fill-rule: evenodd; opacity: 1;" vector-effect="non-scaling-stroke"  transform=" translate(-576.43, -536.11)" d="M 571.553 541.063 C 572.22 539.175 573.07 537.453 574.059 535.949 C 575.5559999999999 533.674 577.3729999999999 531.9 579.358 530.814 C 580.048 530.438 580.862 530.8 581.178 531.621 C 581.493 532.441 581.189 533.411 580.5 533.786 C 578.919 534.651 577.45 536.093 576.223 537.9609999999999 C 575.52 539.0289999999999 574.896 540.2379999999999 574.3779999999999 541.5579999999999 C 573.393 541.425 572.453 541.259 571.553 541.063 z" stroke-linecap="round" />
</g>
		<g transform="matrix(1 0 0 1 79.93 235.93)" id="OBJECTS"  >
<path style="stroke: none; stroke-width: 1; stroke-dasharray: none; stroke-linecap: butt; stroke-dashoffset: 0; stroke-linejoin: miter; stroke-miterlimit: 4; fill: rgb(47,38,83); fill-rule: evenodd; opacity: 1;" vector-effect="non-scaling-stroke"  transform=" translate(-850.51, -531.08)" d="M 853.041 537.702 C 852.49 535.451 851.652 533.412 850.613 531.685 C 849.5450000000001 529.914 848.2750000000001 528.482 846.892 527.4989999999999 C 846.24 527.036 846.029 526.031 846.4190000000001 525.257 C 846.8080000000001 524.483 847.6500000000001 524.2299999999999 848.3020000000001 524.694 C 850.0170000000002 525.914 851.5720000000001 527.6529999999999 852.8510000000001 529.7769999999999 C 853.5970000000001 531.016 854.2530000000002 532.391 854.7980000000001 533.8739999999999 C 854.463 535.335 853.873 536.608 853.041 537.702 z" stroke-linecap="round" />
</g>
		<g transform="matrix(1 0 0 1 69.67 241.61)" id="OBJECTS"  >
<path style="stroke: none; stroke-width: 1; stroke-dasharray: none; stroke-linecap: butt; stroke-dashoffset: 0; stroke-linejoin: miter; stroke-miterlimit: 4; fill: rgb(47,38,83); fill-rule: evenodd; opacity: 1;" vector-effect="non-scaling-stroke"  transform=" translate(-840.25, -536.76)" d="M 842.566 542.854 C 841.97 541.023 841.183 539.37 840.255 537.96 C 839.028 536.092 837.56 534.6510000000001 835.978 533.7850000000001 C 835.2909999999999 533.4100000000001 834.986 532.44 835.3 531.6200000000001 C 835.616 530.8000000000001 836.4309999999999 530.4370000000001 837.1179999999999 530.8130000000001 C 839.1039999999999 531.8990000000001 840.9229999999999 533.6720000000001 842.419 535.9480000000001 C 843.6179999999999 537.7700000000001 844.612 539.9150000000001 845.3249999999999 542.2870000000001 C 844.453 542.516 843.533 542.705 842.566 542.854 z" stroke-linecap="round" />
</g>
		<g transform="matrix(1 0 0 1 -61.92 -98.69)" id="OBJECTS"  >
<path style="stroke: none; stroke-width: 1; stroke-dasharray: none; stroke-linecap: butt; stroke-dashoffset: 0; stroke-linejoin: miter; stroke-miterlimit: 4; fill: rgb(175,117,75); fill-rule: evenodd; opacity: 1;" vector-effect="non-scaling-stroke"  transform=" translate(-708.67, -196.46)" d="M 650.93 169.289 L 657.8299999999999 233.992 C 657.8299999999999 233.992 678.9369999999999 261.01099999999997 692.0919999999999 268.643 C 703.3869999999998 275.19599999999997 710.1859999999999 274.78999999999996 711.8829999999999 274.54499999999996 C 713.5919999999999 274.69199999999995 720.4029999999999 274.70199999999994 731.299 267.50499999999994 C 743.989 259.12199999999996 763.494 230.92799999999994 763.494 230.92799999999994 L 766.635 165.93399999999994 C 769.768 101.079 643.818 102.6 650.93 169.289 z" stroke-linecap="round" />
</g>
		<g transform="matrix(1 0 0 1 -60.55 -37.38)" id="OBJECTS"  >
<path style="stroke: none; stroke-width: 1; stroke-dasharray: none; stroke-linecap: butt; stroke-dashoffset: 0; stroke-linejoin: miter; stroke-miterlimit: 4; fill: rgb(166,72,86); fill-rule: evenodd; opacity: 1;" vector-effect="non-scaling-stroke"  transform=" translate(-710.03, -257.78)" d="M 691.582 230.395 L 728.48 230.395 L 728.48 266.70500000000004 C 728.48 276.85300000000007 720.177 285.15500000000003 710.0310000000001 285.15500000000003 L 710.0310000000001 285.15500000000003 C 699.884 285.15500000000003 691.5820000000001 276.853 691.5820000000001 266.70500000000004 L 691.5820000000001 230.395 z" stroke-linecap="round" />
</g>
		<g transform="matrix(1 0 0 1 -138.82 -86.77)" id="OBJECTS"  >
<path style="stroke: none; stroke-width: 1; stroke-dasharray: none; stroke-linecap: butt; stroke-dashoffset: 0; stroke-linejoin: miter; stroke-miterlimit: 4; fill: rgb(125,79,63); fill-rule: evenodd; opacity: 1;" vector-effect="non-scaling-stroke"  transform=" translate(-631.77, -208.38)" d="M 654.777 145.119 C 650.013 135.933 643.788 143.485 632.8240000000001 159.111 C 621.859 174.73499999999999 592.181 199.731 609.113 219.954 C 626.047 240.17600000000002 622.7070000000001 255.416 623.888 269.065 C 625.07 282.713 650.556 273.815 657.118 253.68099999999998 C 663.682 233.547 654.777 145.119 654.777 145.119 z" stroke-linecap="round" />
</g>
		<g transform="matrix(1 0 0 1 15.55 -86.77)" id="OBJECTS"  >
<path style="stroke: none; stroke-width: 1; stroke-dasharray: none; stroke-linecap: butt; stroke-dashoffset: 0; stroke-linejoin: miter; stroke-miterlimit: 4; fill: rgb(125,79,63); fill-rule: evenodd; opacity: 1;" vector-effect="non-scaling-stroke"  transform=" translate(-786.13, -208.38)" d="M 763.121 145.119 C 767.885 135.933 774.1089999999999 143.485 785.074 159.111 C 796.039 174.73499999999999 825.7189999999999 199.731 808.785 219.954 C 791.851 240.17600000000002 795.1909999999999 255.416 794.01 269.065 C 792.828 282.713 767.342 273.815 760.78 253.68099999999998 C 754.217 233.547 763.121 145.119 763.121 145.119 z" stroke-linecap="round" />
</g>
		<g transform="matrix(1 0 0 1 -128.49 -84.85)" id="OBJECTS"  >
<path style="stroke: none; stroke-width: 1; stroke-dasharray: none; stroke-linecap: butt; stroke-dashoffset: 0; stroke-linejoin: miter; stroke-miterlimit: 4; fill: rgb(107,67,62); fill-rule: evenodd; opacity: 1;" vector-effect="non-scaling-stroke"  transform=" translate(-642.1, -210.31)" d="M 647.478 250.368 C 642.5029999999999 265.63 632.877 270.42 624.664 272.013 C 629.184 281.155 651.102 272.14 657.119 253.682 C 658.365 249.85999999999999 659.0550000000001 243.575 659.351 235.90099999999998 C 660.556 204.82799999999997 655.355 150.976 654.82 145.56199999999998 C 654.792 145.271 654.777 145.11999999999998 654.777 145.11999999999998 C 652.73 141.174 653.865 230.771 647.478 250.368 z" stroke-linecap="round" />
</g>
		<g transform="matrix(1 0 0 1 5.22 -84.87)" id="OBJECTS"  >
<path style="stroke: none; stroke-width: 1; stroke-dasharray: none; stroke-linecap: butt; stroke-dashoffset: 0; stroke-linejoin: miter; stroke-miterlimit: 4; fill: rgb(107,67,62); fill-rule: evenodd; opacity: 1;" vector-effect="non-scaling-stroke"  transform=" translate(-775.8, -210.29)" d="M 770.42 250.368 C 775.395 265.63 785.0219999999999 270.42 793.235 272.013 C 788.715 281.155 766.795 272.14 760.78 253.682 C 759.534 249.85999999999999 758.8439999999999 243.575 758.548 235.90099999999998 C 757.343 204.82799999999997 762.544 150.976 763.079 145.56199999999998 C 763.108 145.271 763.122 145.11999999999998 763.122 145.11999999999998 C 765.498 140.537 764.348 231.738 770.42 250.368 z" stroke-linecap="round" />
</g>
		<g transform="matrix(1 0 0 1 -60.74 -32.68)" id="OBJECTS"  >
<path style="stroke: none; stroke-width: 1; stroke-dasharray: none; stroke-linecap: butt; stroke-dashoffset: 0; stroke-linejoin: miter; stroke-miterlimit: 4; fill: rgb(47,38,83); fill-rule: evenodd; opacity: 1;" vector-effect="non-scaling-stroke"  transform=" translate(-709.84, -262.47)" d="M 707.986 251.606 C 707.986 250.582 708.816 249.75199999999998 709.84 249.75199999999998 C 710.865 249.75199999999998 711.695 250.582 711.695 251.606 L 711.695 273.33299999999997 C 711.695 274.356 710.865 275.18699999999995 709.84 275.18699999999995 C 708.817 275.18699999999995 707.986 274.35599999999994 707.986 273.33299999999997 L 707.986 251.606 z" stroke-linecap="round" />
</g>
		<g transform="matrix(1 0 0 1 -60.55 -77)" id="OBJECTS"  >
<path style="stroke: none; stroke-width: 1; stroke-dasharray: none; stroke-linecap: butt; stroke-dashoffset: 0; stroke-linejoin: miter; stroke-miterlimit: 4; fill: rgb(125,79,63); fill-rule: evenodd; opacity: 1;" vector-effect="non-scaling-stroke"  transform=" translate(-710.03, -218.15)" d="M 672.115 239.719 C 672.761 251.619 684.635 259.303 695.746 257.081 C 709.635 254.30300000000003 710.031 249.937 710.031 249.937 C 710.031 249.937 710.4269999999999 254.30100000000002 724.3159999999999 257.081 C 735.4939999999999 259.31600000000003 747.4429999999999 251.526 747.9569999999999 239.50500000000002 C 748.4609999999999 227.71800000000002 734.8359999999999 224.223 734.8359999999999 215.42600000000002 C 734.8359999999999 166.65 685.2269999999999 166.65 685.2269999999999 215.42600000000002 C 685.227 224.393 671.469 227.835 672.115 239.719 z" stroke-linecap="round" />
</g>
		<g transform="matrix(1 0 0 1 -90.31 -109)" id="OBJECTS"  >
<path style="stroke: none; stroke-width: 1; stroke-dasharray: none; stroke-linecap: butt; stroke-dashoffset: 0; stroke-linejoin: miter; stroke-miterlimit: 4; fill: rgb(47,38,83); fill-rule: evenodd; opacity: 1;" vector-effect="non-scaling-stroke"  transform=" translate(-680.27, -186.15)" d="M 680.269 178.412 C 684.544 178.412 688.0070000000001 181.876 688.0070000000001 186.149 C 688.0070000000001 190.422 684.5440000000001 193.887 680.269 193.887 C 675.998 193.887 672.533 190.422 672.533 186.149 C 672.533 181.876 675.998 178.412 680.269 178.412 z" stroke-linecap="round" />
</g>
		<g transform="matrix(1 0 0 1 -30.79 -109)" id="OBJECTS"  >
<path style="stroke: none; stroke-width: 1; stroke-dasharray: none; stroke-linecap: butt; stroke-dashoffset: 0; stroke-linejoin: miter; stroke-miterlimit: 4; fill: rgb(47,38,83); fill-rule: evenodd; opacity: 1;" vector-effect="non-scaling-stroke"  transform=" translate(-739.79, -186.15)" d="M 739.793 178.412 C 744.064 178.412 747.529 181.876 747.529 186.149 C 747.529 190.422 744.064 193.887 739.793 193.887 C 735.519 193.887 732.055 190.422 732.055 186.149 C 732.055 181.876 735.519 178.412 739.793 178.412 z" stroke-linecap="round" />
</g>
		<g transform="matrix(1 0 0 1 -60.55 -69.17)" id="OBJECTS"  >
<path style="stroke: none; stroke-width: 1; stroke-dasharray: none; stroke-linecap: butt; stroke-dashoffset: 0; stroke-linejoin: miter; stroke-miterlimit: 4; fill: rgb(47,38,83); fill-rule: evenodd; opacity: 1;" vector-effect="non-scaling-stroke"  transform=" translate(-710.03, -225.99)" d="M 727.629 221.947 C 727.629 244.81 692.434 244.81 692.434 221.947 C 692.434 209.852 727.629 209.852 727.629 221.947 z" stroke-linecap="round" />
</g>
		<g transform="matrix(1 0 0 1 -60.55 -77.07)" id="OBJECTS"  >
<ellipse style="stroke: none; stroke-width: 1; stroke-dasharray: none; stroke-linecap: butt; stroke-dashoffset: 0; stroke-linejoin: miter; stroke-miterlimit: 4; fill: rgb(255,255,255); fill-rule: evenodd; opacity: 1;" vector-effect="non-scaling-stroke"  cx="0" cy="0" rx="7.738" ry="2.82" />
</g>
		<g transform="matrix(1 0 0 1 -87.69 -132.21)" id="OBJECTS"  >
<path style="stroke: none; stroke-width: 1; stroke-dasharray: none; stroke-linecap: butt; stroke-dashoffset: 0; stroke-linejoin: miter; stroke-miterlimit: 4; fill: rgb(203,143,108); fill-rule: evenodd; opacity: 1;" vector-effect="non-scaling-stroke"  transform=" translate(-682.89, -162.94)" d="M 690.348 158.738 C 696.295 168.068 676.92 172.422 674.598 168.777 C 672.275 165.134 684.4 149.407 690.348 158.738 z" stroke-linecap="round" />
</g>
		<g transform="matrix(1 0 0 1 -32.05 -132.27)" id="OBJECTS"  >
<path style="stroke: none; stroke-width: 1; stroke-dasharray: none; stroke-linecap: butt; stroke-dashoffset: 0; stroke-linejoin: miter; stroke-miterlimit: 4; fill: rgb(203,143,108); fill-rule: evenodd; opacity: 1;" vector-effect="non-scaling-stroke"  transform=" translate(-738.53, -162.88)" d="M 730.123 160.112 C 725.9140000000001 170.344 745.754 171.214 747.398 167.21699999999998 C 749.041 163.222 734.332 149.88 730.123 160.112 z" stroke-linecap="round" />
</g>
		<g transform="matrix(1 0 0 1 -72.96 -50.78)" id="OBJECTS"  >
<path style="stroke: none; stroke-width: 1; stroke-dasharray: none; stroke-linecap: butt; stroke-dashoffset: 0; stroke-linejoin: miter; stroke-miterlimit: 4; fill: rgb(47,38,83); fill-rule: evenodd; opacity: 1;" vector-effect="non-scaling-stroke"  transform=" translate(-697.62, -244.37)" d="M 707.893 232.327 C 707.893 231.385 708.6510000000001 230.619 709.5840000000001 230.619 C 710.517 230.619 711.2750000000001 231.385 711.2750000000001 232.327 C 711.2750000000001 233.066 711.277 233.245 711.2810000000001 233.515 C 711.3320000000001 237.74699999999999 711.488 250.38199999999998 710.4390000000001 252.19799999999998 C 709.3900000000001 254.01199999999997 707.1600000000001 255.70899999999997 704.402 256.803 C 702.344 257.621 699.945 258.129 697.5060000000001 258.114 C 695.0160000000001 258.099 692.4850000000001 257.54499999999996 690.2130000000001 256.234 C 687.676 254.76799999999997 685.4810000000001 252.38199999999998 684.051 248.78699999999998 C 683.705 247.914 684.125 246.92199999999997 684.99 246.57199999999997 C 685.8530000000001 246.22099999999998 686.836 246.646 687.181 247.51899999999998 C 688.2940000000001 250.32399999999998 689.97 252.16199999999998 691.89 253.271 C 693.63 254.27499999999998 695.585 254.7 697.519 254.71099999999998 C 699.503 254.72299999999998 701.472 254.30399999999997 703.173 253.62699999999998 C 705.241 252.80599999999998 706.849 251.64899999999997 707.519 250.48799999999997 C 708.107 249.46999999999997 707.96 237.54799999999997 707.912 233.55399999999997 C 707.9 232.65 707.893 232.669 707.893 232.327 z" stroke-linecap="round" />
</g>
		<g transform="matrix(1 0 0 1 -48.93 -50.78)" id="OBJECTS"  >
<path style="stroke: none; stroke-width: 1; stroke-dasharray: none; stroke-linecap: butt; stroke-dashoffset: 0; stroke-linejoin: miter; stroke-miterlimit: 4; fill: rgb(47,38,83); fill-rule: evenodd; opacity: 1;" vector-effect="non-scaling-stroke"  transform=" translate(-721.66, -244.37)" d="M 708.006 232.327 C 708.006 231.385 708.764 230.619 709.697 230.619 C 710.63 230.619 711.388 231.385 711.388 232.327 C 711.388 232.669 711.38 232.65 711.368 233.555 C 711.3190000000001 237.548 711.173 249.471 711.7610000000001 250.489 C 712.431 251.65 714.0380000000001 252.806 716.1050000000001 253.62800000000001 C 717.8100000000002 254.305 719.7770000000002 254.72400000000002 721.7610000000001 254.71200000000002 C 723.695 254.70000000000002 725.652 254.275 727.392 253.27200000000002 C 729.3100000000001 252.16400000000002 730.9860000000001 250.324 732.099 247.52 C 732.445 246.64700000000002 733.427 246.222 734.292 246.573 C 735.1550000000001 246.923 735.575 247.91500000000002 735.229 248.788 C 733.7990000000001 252.38400000000001 731.604 254.769 729.067 256.23400000000004 C 726.797 257.54600000000005 724.264 258.1 721.774 258.115 C 719.334 258.13100000000003 716.938 257.623 714.878 256.80400000000003 C 712.1220000000001 255.70900000000003 709.89 254.01300000000003 708.841 252.19900000000004 C 707.794 250.38400000000004 707.948 237.74700000000004 708.001 233.51600000000005 C 708.004 233.245 708.006 233.066 708.006 232.327 z" stroke-linecap="round" />
</g>
		<g transform="matrix(1 0 0 1 -27.37 -113.93)" id="OBJECTS"  >
<path style="stroke: none; stroke-width: 1; stroke-dasharray: none; stroke-linecap: butt; stroke-dashoffset: 0; stroke-linejoin: miter; stroke-miterlimit: 4; fill: rgb(255,255,255); fill-rule: evenodd; opacity: 1;" vector-effect="non-scaling-stroke"  transform=" translate(-743.21, -181.22)" d="M 743.213 183.464 C 744.449 183.464 745.457 182.456 745.457 181.221 C 745.457 179.987 744.449 178.979 743.213 178.979 C 741.9789999999999 178.979 740.971 179.98700000000002 740.971 181.221 C 740.971 182.456 741.978 183.464 743.213 183.464 z" stroke-linecap="round" />
</g>
		<g transform="matrix(1 0 0 1 -86.68 -113.93)" id="OBJECTS"  >
<path style="stroke: none; stroke-width: 1; stroke-dasharray: none; stroke-linecap: butt; stroke-dashoffset: 0; stroke-linejoin: miter; stroke-miterlimit: 4; fill: rgb(255,255,255); fill-rule: evenodd; opacity: 1;" vector-effect="non-scaling-stroke"  transform=" translate(-683.91, -181.22)" d="M 683.906 183.464 C 685.1419999999999 183.464 686.15 182.456 686.15 181.221 C 686.15 179.987 685.1419999999999 178.979 683.906 178.979 C 682.6719999999999 178.979 681.664 179.98700000000002 681.664 181.221 C 681.664 182.456 682.672 183.464 683.906 183.464 z" stroke-linecap="round" />
</g>
		<g transform="matrix(1 0 0 1 68.17 -172.29)" id="OBJECTS"  >
<path style="stroke: none; stroke-width: 1; stroke-dasharray: none; stroke-linecap: butt; stroke-dashoffset: 0; stroke-linejoin: miter; stroke-miterlimit: 4; fill: rgb(246,134,106); fill-rule: evenodd; opacity: 1;" vector-effect="non-scaling-stroke"  transform=" translate(-838.75, -122.86)" d="M 762.654 102.334 C 805.968 102.151 867.886 109.348 904.765 134.053 C 911.298 138.43 909.943 137.615 914.851 143.397 C 903.499 139.238 913.972 143.238 902.445 138.333 C 859.902 120.23599999999999 809.1270000000001 116.37 763.4760000000001 119.03399999999999 L 762.654 102.334 z" stroke-linecap="round" />
</g>
		<g transform="matrix(1 0 0 1 -129.18 -176.02)" id="OBJECTS"  >
<path style="stroke: none; stroke-width: 1; stroke-dasharray: none; stroke-linecap: butt; stroke-dashoffset: 0; stroke-linejoin: miter; stroke-miterlimit: 4; fill: rgb(246,134,106); fill-rule: evenodd; opacity: 1;" vector-effect="non-scaling-stroke"  transform=" translate(-641.4, -119.13)" d="M 629.582 90.838 C 603.137 97.39999999999999 592.388 147.89499999999998 613.789 151.00099999999998 C 626.305 152.81599999999997 619.828 147.51399999999998 659.828 123.49399999999997 C 670.072 117.34299999999998 695.326 100.97899999999997 668.299 90.15299999999996 C 656.774 85.537 639.469 86.005 629.582 90.838 z" stroke-linecap="round" />
</g>
		<g transform="matrix(1 0 0 1 -74.75 -202.46)" id="OBJECTS"  >
<path style="stroke: none; stroke-width: 1; stroke-dasharray: none; stroke-linecap: butt; stroke-dashoffset: 0; stroke-linejoin: miter; stroke-miterlimit: 4; fill: rgb(246,134,106); fill-rule: evenodd; opacity: 1;" vector-effect="non-scaling-stroke"  transform=" translate(-695.83, -92.7)" d="M 692.389 103.645 C 721.881 101.017 704.83 73.338 688.035 84.306 C 681.228 88.749 680.797 102.812 692.389 103.645 z" stroke-linecap="round" />
</g>
		<g transform="matrix(1 0 0 1 -296.95 204.8)" id="OBJECTS"  >
<path style="stroke: none; stroke-width: 1; stroke-dasharray: none; stroke-linecap: butt; stroke-dashoffset: 0; stroke-linejoin: miter; stroke-miterlimit: 4; fill: rgb(255,255,255); fill-rule: evenodd; opacity: 1;" vector-effect="non-scaling-stroke"  transform=" translate(-473.63, -499.95)" d="M 483.085 500.464 C 474.02 502.538 473.018 505.77 471.656 509.513 C 461.266 538.093 449.164 512.688 451.168 497.611 C 452.341 488.789 457.624 480.138 467.915 477.99899999999997 C 488.278 473.764 511.533 493.954 483.085 500.464 z" stroke-linecap="round" />
</g>
		<g transform="matrix(1 0 0 1 -321.76 176.94)" id="OBJECTS"  >
<path style="stroke: none; stroke-width: 1; stroke-dasharray: none; stroke-linecap: butt; stroke-dashoffset: 0; stroke-linejoin: miter; stroke-miterlimit: 4; fill: rgb(255,255,255); fill-rule: evenodd; opacity: 1;" vector-effect="non-scaling-stroke"  transform=" translate(-448.82, -472.09)" d="M 441.83 464.261 C 438.491 467.278 438.123 472.312 442.20099999999996 476.824 C 446.28 481.334 453.26199999999994 483.618 456.602 480.59700000000004 C 459.94 477.57900000000006 458.37199999999996 470.40400000000005 454.29299999999995 465.89000000000004 C 450.214 461.379 445.168 461.241 441.83 464.261 z" stroke-linecap="round" />
</g>
		<g transform="matrix(1 0 0 1 -299.84 167.95)" id="OBJECTS"  >
<path style="stroke: none; stroke-width: 1; stroke-dasharray: none; stroke-linecap: butt; stroke-dashoffset: 0; stroke-linejoin: miter; stroke-miterlimit: 4; fill: rgb(255,255,255); fill-rule: evenodd; opacity: 1;" vector-effect="non-scaling-stroke"  transform=" translate(-470.75, -463.11)" d="M 468.627 451.962 C 464.55 453.517 462.00600000000003 458.337 463.334 464.545 C 464.662 470.754 469.359 476 473.436 474.444 C 477.513 472.88800000000003 479.42699999999996 465.12100000000004 478.099 458.91200000000003 C 476.77 452.704 472.704 450.405 468.627 451.962 z" stroke-linecap="round" />
</g>
		<g transform="matrix(1 0 0 1 -332.88 195.58)" id="OBJECTS"  >
<path style="stroke: none; stroke-width: 1; stroke-dasharray: none; stroke-linecap: butt; stroke-dashoffset: 0; stroke-linejoin: miter; stroke-miterlimit: 4; fill: rgb(255,255,255); fill-rule: evenodd; opacity: 1;" vector-effect="non-scaling-stroke"  transform=" translate(-437.7, -490.73)" d="M 427.807 486.182 C 425.40000000000003 489.90000000000003 426.65000000000003 494.48900000000003 432.23400000000004 497.23400000000004 C 437.819 499.98100000000005 445.62500000000006 499.84400000000005 448.03200000000004 496.12600000000003 C 450.44000000000005 492.40700000000004 446.53700000000003 486.516 440.95200000000006 483.769 C 435.366 481.022 430.214 482.462 427.807 486.182 z" stroke-linecap="round" />
</g>
		<g transform="matrix(1 0 0 1 66.84 -245.72)" id="OBJECTS"  >
<path style="stroke: none; stroke-width: 1; stroke-dasharray: none; stroke-linecap: butt; stroke-dashoffset: 0; stroke-linejoin: miter; stroke-miterlimit: 4; fill: rgb(246,134,106); fill-rule: evenodd; opacity: 1;" vector-effect="non-scaling-stroke"  transform=" translate(-837.42, -49.44)" d="M 835.566 46.558 C 835.566 45.534 836.3960000000001 44.704 837.421 44.704 C 838.4440000000001 44.704 839.2750000000001 45.534 839.2750000000001 46.558 L 839.2750000000001 52.314 C 839.2750000000001 53.338 838.445 54.168 837.421 54.168 C 836.3960000000001 54.168 835.566 53.338 835.566 52.314 L 835.566 46.558 z" stroke-linecap="round" />
</g>
		<g transform="matrix(1 0 0 1 75.6 -236.95)" id="OBJECTS"  >
<path style="stroke: none; stroke-width: 1; stroke-dasharray: none; stroke-linecap: butt; stroke-dashoffset: 0; stroke-linejoin: miter; stroke-miterlimit: 4; fill: rgb(246,134,106); fill-rule: evenodd; opacity: 1;" vector-effect="non-scaling-stroke"  transform=" translate(-846.19, -58.2)" d="M 849.064 56.348 C 850.0889999999999 56.348 850.919 57.178 850.919 58.202 C 850.919 59.226 850.0889999999999 60.056 849.064 60.056 L 843.31 60.056 C 842.285 60.056 841.4549999999999 59.224999999999994 841.4549999999999 58.202 C 841.4549999999999 57.178 842.285 56.348 843.31 56.348 L 849.064 56.348 z" stroke-linecap="round" />
</g>
		<g transform="matrix(1 0 0 1 66.84 -228.18)" id="OBJECTS"  >
<path style="stroke: none; stroke-width: 1; stroke-dasharray: none; stroke-linecap: butt; stroke-dashoffset: 0; stroke-linejoin: miter; stroke-miterlimit: 4; fill: rgb(246,134,106); fill-rule: evenodd; opacity: 1;" vector-effect="non-scaling-stroke"  transform=" translate(-837.42, -66.97)" d="M 835.566 64.09 C 835.566 63.066 836.3960000000001 62.236000000000004 837.421 62.236000000000004 C 838.4440000000001 62.236000000000004 839.2750000000001 63.066 839.2750000000001 64.09 L 839.2750000000001 69.846 C 839.2750000000001 70.87 838.445 71.7 837.421 71.7 C 836.3960000000001 71.7 835.566 70.87 835.566 69.846 L 835.566 64.09 z" stroke-linecap="round" />
</g>
		<g transform="matrix(1 0 0 1 58.07 -236.95)" id="OBJECTS"  >
<path style="stroke: none; stroke-width: 1; stroke-dasharray: none; stroke-linecap: butt; stroke-dashoffset: 0; stroke-linejoin: miter; stroke-miterlimit: 4; fill: rgb(246,134,106); fill-rule: evenodd; opacity: 1;" vector-effect="non-scaling-stroke"  transform=" translate(-828.65, -58.2)" d="M 831.533 56.348 C 832.556 56.348 833.388 57.178 833.388 58.202 C 833.388 59.226 832.556 60.056 831.533 60.056 L 825.777 60.056 C 824.754 60.056 823.922 59.224999999999994 823.922 58.202 C 823.922 57.178 824.754 56.348 825.777 56.348 L 831.533 56.348 z" stroke-linecap="round" />
</g>
		<g transform="matrix(1 0 0 1 330.44 189.41)" id="OBJECTS"  >
<path style="stroke: none; stroke-width: 1; stroke-dasharray: none; stroke-linecap: butt; stroke-dashoffset: 0; stroke-linejoin: miter; stroke-miterlimit: 4; fill: rgb(246,134,106); fill-rule: evenodd; opacity: 1;" vector-effect="non-scaling-stroke"  transform=" translate(-1101.03, -484.56)" d="M 1099.174 481.682 C 1099.174 480.65700000000004 1100.004 479.827 1101.028 479.827 C 1102.053 479.827 1102.883 480.657 1102.883 481.682 L 1102.883 487.437 C 1102.883 488.461 1102.053 489.291 1101.028 489.291 C 1100.005 489.291 1099.174 488.461 1099.174 487.437 L 1099.174 481.682 z" stroke-linecap="round" />
</g>
		<g transform="matrix(1 0 0 1 339.21 198.17)" id="OBJECTS"  >
<path style="stroke: none; stroke-width: 1; stroke-dasharray: none; stroke-linecap: butt; stroke-dashoffset: 0; stroke-linejoin: miter; stroke-miterlimit: 4; fill: rgb(246,134,106); fill-rule: evenodd; opacity: 1;" vector-effect="non-scaling-stroke"  transform=" translate(-1109.79, -493.32)" d="M 1112.672 491.471 C 1113.695 491.471 1114.526 492.301 1114.526 493.325 C 1114.526 494.348 1113.6960000000001 495.179 1112.672 495.179 L 1106.916 495.179 C 1105.8909999999998 495.179 1105.061 494.34799999999996 1105.061 493.325 C 1105.061 492.301 1105.8909999999998 491.471 1106.916 491.471 L 1112.672 491.471 z" stroke-linecap="round" />
</g>
		<g transform="matrix(1 0 0 1 330.44 206.94)" id="OBJECTS"  >
<path style="stroke: none; stroke-width: 1; stroke-dasharray: none; stroke-linecap: butt; stroke-dashoffset: 0; stroke-linejoin: miter; stroke-miterlimit: 4; fill: rgb(246,134,106); fill-rule: evenodd; opacity: 1;" vector-effect="non-scaling-stroke"  transform=" translate(-1101.03, -502.09)" d="M 1099.174 499.213 C 1099.174 498.19 1100.004 497.358 1101.028 497.358 C 1102.053 497.358 1102.883 498.19 1102.883 499.213 L 1102.883 504.96900000000005 C 1102.883 505.9920000000001 1102.053 506.82300000000004 1101.028 506.82300000000004 C 1100.005 506.82300000000004 1099.174 505.992 1099.174 504.96900000000005 L 1099.174 499.213 z" stroke-linecap="round" />
</g>
		<g transform="matrix(1 0 0 1 321.68 198.17)" id="OBJECTS"  >
<path style="stroke: none; stroke-width: 1; stroke-dasharray: none; stroke-linecap: butt; stroke-dashoffset: 0; stroke-linejoin: miter; stroke-miterlimit: 4; fill: rgb(246,134,106); fill-rule: evenodd; opacity: 1;" vector-effect="non-scaling-stroke"  transform=" translate(-1092.26, -493.32)" d="M 1095.141 491.471 C 1096.164 491.471 1096.9950000000001 492.301 1096.9950000000001 493.325 C 1096.9950000000001 494.348 1096.1650000000002 495.179 1095.141 495.179 L 1089.383 495.179 C 1088.3600000000001 495.179 1087.529 494.34799999999996 1087.529 493.325 C 1087.529 492.301 1088.359 491.471 1089.383 491.471 L 1095.141 491.471 z" stroke-linecap="round" />
</g>
		<g transform="matrix(1 0 0 1 303.67 -117.48)" id="OBJECTS"  >
<path style="stroke: none; stroke-width: 1; stroke-dasharray: none; stroke-linecap: butt; stroke-dashoffset: 0; stroke-linejoin: miter; stroke-miterlimit: 4; fill: rgb(246,134,106); fill-rule: evenodd; opacity: 1;" vector-effect="non-scaling-stroke"  transform=" translate(-1074.26, -177.67)" d="M 1072.404 174.79 C 1072.404 173.767 1073.234 172.93599999999998 1074.259 172.93599999999998 C 1075.282 172.93599999999998 1076.113 173.76699999999997 1076.113 174.79 L 1076.113 180.547 C 1076.113 181.57 1075.2830000000001 182.401 1074.259 182.401 C 1073.234 182.401 1072.404 181.57000000000002 1072.404 180.547 L 1072.404 174.79 z" stroke-linecap="round" />
</g>
		<g transform="matrix(1 0 0 1 312.44 -108.72)" id="OBJECTS"  >
<path style="stroke: none; stroke-width: 1; stroke-dasharray: none; stroke-linecap: butt; stroke-dashoffset: 0; stroke-linejoin: miter; stroke-miterlimit: 4; fill: rgb(246,134,106); fill-rule: evenodd; opacity: 1;" vector-effect="non-scaling-stroke"  transform=" translate(-1083.02, -186.43)" d="M 1085.902 184.579 C 1086.925 184.579 1087.757 185.41 1087.757 186.43300000000002 C 1087.757 187.45800000000003 1086.925 188.288 1085.902 188.288 L 1080.146 188.288 C 1079.123 188.288 1078.291 187.458 1078.291 186.43300000000002 C 1078.291 185.41000000000003 1079.123 184.579 1080.146 184.579 L 1085.902 184.579 z" stroke-linecap="round" />
</g>
		<g transform="matrix(1 0 0 1 303.67 -99.95)" id="OBJECTS"  >
<path style="stroke: none; stroke-width: 1; stroke-dasharray: none; stroke-linecap: butt; stroke-dashoffset: 0; stroke-linejoin: miter; stroke-miterlimit: 4; fill: rgb(246,134,106); fill-rule: evenodd; opacity: 1;" vector-effect="non-scaling-stroke"  transform=" translate(-1074.26, -195.2)" d="M 1072.404 192.322 C 1072.404 191.298 1073.234 190.468 1074.259 190.468 C 1075.282 190.468 1076.113 191.298 1076.113 192.322 L 1076.113 198.078 C 1076.113 199.102 1075.2830000000001 199.933 1074.259 199.933 C 1073.234 199.933 1072.404 199.10299999999998 1072.404 198.078 L 1072.404 192.322 z" stroke-linecap="round" />
</g>
		<g transform="matrix(1 0 0 1 294.91 -108.72)" id="OBJECTS"  >
<path style="stroke: none; stroke-width: 1; stroke-dasharray: none; stroke-linecap: butt; stroke-dashoffset: 0; stroke-linejoin: miter; stroke-miterlimit: 4; fill: rgb(246,134,106); fill-rule: evenodd; opacity: 1;" vector-effect="non-scaling-stroke"  transform=" translate(-1065.49, -186.43)" d="M 1068.371 184.579 C 1069.394 184.579 1070.2250000000001 185.41 1070.2250000000001 186.43300000000002 C 1070.2250000000001 187.45800000000003 1069.3950000000002 188.288 1068.371 188.288 L 1062.615 188.288 C 1061.59 188.288 1060.76 187.458 1060.76 186.43300000000002 C 1060.76 185.41000000000003 1061.59 184.579 1062.615 184.579 L 1068.371 184.579 z" stroke-linecap="round" />
</g>
		<g transform="matrix(1 0 0 1 -272.53 -117.07)" id="OBJECTS"  >
<path style="stroke: none; stroke-width: 1; stroke-dasharray: none; stroke-linecap: butt; stroke-dashoffset: 0; stroke-linejoin: miter; stroke-miterlimit: 4; fill: rgb(246,134,106); fill-rule: evenodd; opacity: 1;" vector-effect="non-scaling-stroke"  transform=" translate(-338.88, -112.24)" d="M 337.03 109.365 C 337.03 108.342 337.85999999999996 107.511 338.885 107.511 C 339.909 107.511 340.739 108.342 340.739 109.365 L 340.739 115.121 C 340.739 116.145 339.90799999999996 116.975 338.885 116.975 C 337.86 116.975 337.03 116.145 337.03 115.121 L 337.03 109.365 z" stroke-linecap="round" />
</g>
		<g transform="matrix(1 0 0 1 -263.76 -108.3)" id="OBJECTS"  >
<path style="stroke: none; stroke-width: 1; stroke-dasharray: none; stroke-linecap: butt; stroke-dashoffset: 0; stroke-linejoin: miter; stroke-miterlimit: 4; fill: rgb(246,134,106); fill-rule: evenodd; opacity: 1;" vector-effect="non-scaling-stroke"  transform=" translate(-347.65, -121.01)" d="M 350.529 119.155 C 351.553 119.155 352.384 119.985 352.384 121.01 C 352.384 122.034 351.553 122.864 350.529 122.864 L 344.774 122.864 C 343.749 122.864 342.919 122.034 342.919 121.01 C 342.919 119.986 343.75 119.155 344.774 119.155 L 350.529 119.155 z" stroke-linecap="round" />
</g>
		<g transform="matrix(1 0 0 1 -272.53 -99.54)" id="OBJECTS"  >
<path style="stroke: none; stroke-width: 1; stroke-dasharray: none; stroke-linecap: butt; stroke-dashoffset: 0; stroke-linejoin: miter; stroke-miterlimit: 4; fill: rgb(246,134,106); fill-rule: evenodd; opacity: 1;" vector-effect="non-scaling-stroke"  transform=" translate(-338.88, -129.78)" d="M 337.03 126.897 C 337.03 125.873 337.85999999999996 125.043 338.885 125.043 C 339.909 125.043 340.739 125.873 340.739 126.897 L 340.739 132.65300000000002 C 340.739 133.67700000000002 339.90799999999996 134.50700000000003 338.885 134.50700000000003 C 337.86 134.50700000000003 337.03 133.67700000000002 337.03 132.65300000000002 L 337.03 126.897 z" stroke-linecap="round" />
</g>
		<g transform="matrix(1 0 0 1 -281.29 -108.3)" id="OBJECTS"  >
<path style="stroke: none; stroke-width: 1; stroke-dasharray: none; stroke-linecap: butt; stroke-dashoffset: 0; stroke-linejoin: miter; stroke-miterlimit: 4; fill: rgb(246,134,106); fill-rule: evenodd; opacity: 1;" vector-effect="non-scaling-stroke"  transform=" translate(-330.12, -121.01)" d="M 332.997 119.155 C 334.021 119.155 334.85200000000003 119.985 334.85200000000003 121.01 C 334.85200000000003 122.034 334.02200000000005 122.864 332.997 122.864 L 327.241 122.864 C 326.217 122.864 325.387 122.034 325.387 121.01 C 325.387 119.986 326.218 119.155 327.241 119.155 L 332.997 119.155 z" stroke-linecap="round" />
</g>
</g>
</g>
</svg>